<svg xmlns="http://www.w3.org/2000/svg" xmlns:android="http://schemas.android.com/apk/res/android" width="64.346dp" height="52.854dp" viewportWidth="64.346" viewportHeight="52.854">
	<path d="M30.575,19.883l17.416,6.529 -1.663,-7.033 4.53,-1.151s4.872,13.749 1.488,14.117c-5.923,0.644 -14.886,-1.7 -14.886,-1.7Z" fill="#f6aea6"/>
	<path d="M36.622,35.651l-0.04,13.773c-4.535,5.576 -20.325,-1.634 -20.325,-1.634l-0.184,-5.633 -0.367,-13.418c0.364,-5.343 5.326,-7.966 5.326,-7.966a17.417,17.417 0,0 1,8 -1.464c2.943,0.145 3.67,1.555 4.882,4.24C34.8951,25.714 36.622,27.755 36.622,35.651Z" fill="#d6a80a"/>
	<path d="M22.7371,33.146s-2.207,13.005 0.906,12.686c10.237,-1.053 16.333,-1.2 16.333,-1.2l1.7,3.523c0.04,0.6 -19.387,6.161 -22.509,4.323 -2.2,-1.3 -5.715,-4.795 -4.121,-15.245l0.377,-3.5Z" fill="#f6aea6"/>
	<path d="M17.107,24.52s-2.387,2.293 -2.922,10.97l9.242,-1.022S24.9669,19.69 17.107,24.52Z" fill="#d6a80a"/>
	<path d="M21.735,6.334l0.209,2.754s-2.342,0.316 -1.675,2.452 2.27,1.2 2.27,1.2 0.4,5.474 6.008,3.739c4.463,-1.381 4.19,-7.16 3.624,-12.087a3.3,3.3 0,0 0,-3.911 -2.853l-3.371,0.656A3.913,3.913 0,0 0,21.735 6.334Z" fill="#f6aea6"/>
	<path d="M21.944,11.374l1.511,8.058a3.233,3.233 0,0 0,3.927 2.548h0a3.233,3.233 0,0 0,2.432 -3.709l-0.82,-4.617Z" fill="#f6aea6"/>
	<path d="M28.505,6.559q0.124,1.981 0.248,3.963a1.857,1.857 0,0 1,-0.082 0.862c-0.115,0.248 -0.414,0.332 -0.525,0.081" stroke-width="0.05" fill="#00000000" stroke="#251a51"/>
	<path d="M24.627,16.03a4.55,4.55 0,0 0,5.339 -0.113" stroke-width="0.05" fill="#00000000" stroke="#251a51"/>
	<path d="M26.589,11.863a1.3,1.3 0,0 0,2.281 0.733" stroke-width="0.05" fill="#00000000" stroke="#251a51"/>
	<path d="M21.298,10.406l0.339,0.764a0.261,0.261 0,0 0,-0.421 0.02,0.377 0.377,0 0,0 0.086,0.457 0.7,0.7 0,0 0,0.466 0.16" stroke-width="0.05" fill="#00000000" stroke="#251a51"/>
	<path d="M24.959,6.673a1.234,1.234 0,0 1,1.126 -0.3" stroke-width="0.05" fill="#00000000" stroke="#251a51"/>
	<path d="M29.657,5.722a1.529,1.529 0,0 1,1.281 -0.112" stroke-width="0.05" fill="#00000000" stroke="#251a51"/>
	<path d="M21.944,9.088c1.565,-1.526 2.025,-4.068 2.45,-6.212a5.481,5.481 0,0 0,5.115 0.666,8.258 8.258,0 0,0 1.822,1.592 0.815,0.815 0,0 0,0.644 0.178c0.263,-0.08 0.38,-0.38 0.442,-0.648a4.6,4.6 0,0 0,-0.091 -2.6,3.123 3.123,0 0,0 -1.742,-1.869 4.562,4.562 0,0 0,-2.769 0.044,15.381 15.381,0 0,0 -3.909,1.615 6.314,6.314 0,0 0,-2.856 2.921c-0.508,1.292 -0.506,3.8 0.719,4.455" fill="#313133"/>
	<path d="M31.187,19.824c-1.516,-0.6 10.141,3.726 10.141,3.726l-1.183,7.974 -4.434,-1.454Z" fill="#d6a80a"/>
	<path d="M38.8999,44.638s5.009,-1.571 4.837,-1.055 -1.024,0.536 -1.877,1.369c0,0 5.6,0.061 5.331,0.523s-3.915,0.577 -3.936,0.656 3.987,0.177 3.9,0.6 -3.815,0.322 -3.815,0.322 3.453,0.367 3.382,0.828 -3.255,0.128 -3.255,0.128 2.665,0.305 2.6,0.722c-0.042,0.253 -7.8,0.311 -7.819,0.5 -0.008,0.1 0.659,-4.595 0.659,-4.595" fill="#f6aea6"/>
	<path d="M46.6559,19.824s-3.042,-4.253 -2.5,-4.25 0.825,0.8 1.879,1.351c0,0 -1.681,-5.318 -1.16,-5.207s1.761,3.525 1.842,3.521 -1.07,-3.828 -0.638,-3.875 1.49,3.51 1.49,3.51 -0.725,-3.382 -0.267,-3.457 1.132,3.04 1.132,3.04 -0.539,-2.616 -0.123,-2.68c0.253,-0.039 2.55,6.45 2.55,6.45 -0.06,0 -4.2,1.6 -4.2,1.6" fill="#f6aea6"/>
	<path d="M16.241,32.831a0.7,0.7 0,0 1,1.106 -0.622c0.225,0.165 0.362,0.467 0.635,0.528a0.573,0.573 0,0 0,0.611 -0.413,1.674 1.674,0 0,0 0.006,-0.8" stroke-width="0.05" fill="#00000000" stroke="#313133"/>
	<path d="M23.679,30.496a0.7,0.7 0,0 1,-1.107 -0.621c0.023,-0.279 0.21,-0.553 0.12,-0.818a0.574,0.574 0,0 0,-0.67 -0.308,1.673 1.673,0 0,0 -0.686,0.412" stroke-width="0.05" fill="#00000000" stroke="#313133"/>
	<path d="M23.4939,24.612a0.7,0.7 0,0 1,-1.107 -0.621c0.023,-0.279 0.21,-0.553 0.12,-0.818a0.574,0.574 0,0 0,-0.671 -0.308,1.671 1.671,0 0,0 -0.685,0.412" stroke-width="0.05" fill="#00000000" stroke="#313133"/>
	<path d="M28.112,28.486a0.7,0.7 0,0 1,-0.522 1.157c-0.279,0 -0.569,-0.161 -0.825,-0.049a0.574,0.574 0,0 0,-0.248 0.7,1.668 1.668,0 0,0 0.47,0.647" stroke-width="0.05" fill="#00000000" stroke="#313133"/>
	<path d="M28.7321,35.592a0.7,0.7 0,0 1,1.058 0.7c-0.043,0.276 -0.25,0.536 -0.18,0.807a0.573,0.573 0,0 0,0.646 0.356,1.675 1.675,0 0,0 0.714,-0.359" stroke-width="0.05" fill="#00000000" stroke="#313133"/>
	<path d="M33.416,25.886a0.7,0.7 0,0 1,1.058 0.7c-0.043,0.276 -0.251,0.536 -0.18,0.807a0.573,0.573 0,0 0,0.646 0.356,1.675 1.675,0 0,0 0.714,-0.359" stroke-width="0.05" fill="#00000000" stroke="#313133"/>
	<path d="M38.1869,28.526a0.7,0.7 0,0 1,0.3 -1.233c0.274,-0.052 0.589,0.054 0.82,-0.1a0.574,0.574 0,0 0,0.116 -0.728,1.673 1.673,0 0,0 -0.579,-0.55" stroke-width="0.05" fill="#00000000" stroke="#313133"/>
	<path d="M23.675,40.611a0.7,0.7 0,0 1,1.058 0.7c-0.043,0.276 -0.251,0.536 -0.18,0.806a0.574,0.574 0,0 0,0.646 0.356,1.676 1.676,0 0,0 0.714,-0.36" stroke-width="0.05" fill="#00000000" stroke="#313133"/>
	<path d="M34.256,30.474a0.7,0.7 0,0 1,-0.656 1.087c-0.277,-0.031 -0.546,-0.228 -0.813,-0.146a0.574,0.574 0,0 0,-0.328 0.661,1.674 1.674,0 0,0 0.39,0.7" stroke-width="0.05" fill="#00000000" stroke="#313133"/>
	<path d="M35.501,35.493a0.7,0.7 0,0 1,-0.655 1.087c-0.278,-0.031 -0.547,-0.227 -0.814,-0.146a0.574,0.574 0,0 0,-0.328 0.661,1.676 1.676,0 0,0 0.39,0.7" stroke-width="0.05" fill="#00000000" stroke="#313133"/>
	<path d="M26.647,34.894a0.7,0.7 0,0 1,-1.216 0.364c-0.184,-0.21 -0.251,-0.535 -0.5,-0.654a0.574,0.574 0,0 0,-0.687 0.269,1.676 1.676,0 0,0 -0.18,0.779" stroke-width="0.05" fill="#00000000" stroke="#313133"/>
	<path d="M35.708,41.09a0.7,0.7 0,0 1,-1.215 0.364c-0.184,-0.21 -0.251,-0.536 -0.5,-0.655a0.573,0.573 0,0 0,-0.687 0.269,1.673 1.673,0 0,0 -0.181,0.779" stroke-width="0.05" fill="#00000000" stroke="#313133"/>
	<path d="M35.4461,22.32a0.7,0.7 0,0 1,-1.216 0.365c-0.184,-0.21 -0.251,-0.536 -0.5,-0.655a0.573,0.573 0,0 0,-0.687 0.269,1.659 1.659,0 0,0 -0.181,0.779" stroke-width="0.05" fill="#00000000" stroke="#313133"/>
	<path d="M30.224,41.662a0.7,0.7 0,0 1,-0.145 1.261c-0.266,0.087 -0.591,0.02 -0.8,0.2a0.574,0.574 0,0 0,-0.024 0.738,1.676 1.676,0 0,0 0.644,0.473" stroke-width="0.05" fill="#00000000" stroke="#313133"/>
	<path d="M17.5249,28.064a0.7,0.7 0,0 1,0.759 -1.018c0.273,0.058 0.521,0.28 0.8,0.224a0.574,0.574 0,0 0,0.391 -0.626,1.67 1.67,0 0,0 -0.32,-0.733" stroke-width="0.05" fill="#00000000" stroke="#313133"/>
	<path d="M27.899,26.207a0.7,0.7 0,0 1,0.758 -1.018c0.274,0.058 0.521,0.28 0.8,0.224a0.573,0.573 0,0 0,0.391 -0.626,1.672 1.672,0 0,0 -0.32,-0.733" stroke-width="0.05" fill="#00000000" stroke="#313133"/>
	<path d="M18.9401,22.671a5.8,5.8 0,0 1,2.824 0.158,3.379 3.379,0 0,1 2.06,1.853 5.542,5.542 0,0 1,0.141 2.65q-0.419,3.82 -0.837,7.64" stroke-width="0.05" fill="#00000000" stroke="#251a51"/>
	<path d="M14.097,35.464l9.443,-1" stroke-width="0.05" fill="#00000000" stroke="#251a51"/>
	<path d="M46.084,38.202a3.55,3.55 0,0 1,0.361 -1.5c0.589,-0.928 1.426,-0.695 2.237,-0.286a2.766,2.766 0,0 0,2.5 0.276c1.4,-0.606 2.06,-2.722 0.722,-3.716 -0.433,-0.322 -0.86,0.209 -0.8,0.616 0.081,0.569 0.364,1.2 -0.124,1.684 -0.652,0.654 -1.416,0.1 -2.067,-0.189a2.7,2.7 0,0 0,-2.173 -0.094c-1.248,0.5 -2.153,2.2 -1.162,3.339a0.305,0.305 0,0 0,0.507 -0.134Z" fill="#313133"/>
	<path d="M55.623,18.134a2.528,2.528 0,0 0,-0.413 3.494,2.709 2.709,0 0,0 3.639,0.436c2.622,-2.024 -0.111,-5.758 -2.94,-4.985a0.47,0.47 0,0 0,0.125 0.919,3.732 3.732,0 0,1 2.373,0.659 1.721,1.721 0,0 1,0.143 2.392c-1.542,1.9 -4.221,-0.9 -2.6,-2.592a0.23,0.23 0,0 0,-0.325 -0.325Z" fill="#ffcd23"/>
	<path d="M14.8661,16.285a2.528,2.528 0,0 0,-0.413 3.494,2.709 2.709,0 0,0 3.639,0.436c2.622,-2.024 -0.112,-5.758 -2.941,-4.985a0.47,0.47 0,0 0,0.125 0.919,3.734 3.734,0 0,1 2.374,0.659 1.721,1.721 0,0 1,0.143 2.393c-1.542,1.9 -4.221,-0.9 -2.6,-2.592a0.23,0.23 0,0 0,-0.325 -0.325Z" fill="#313133"/>
	<path d="M0.819,39.642c0.667,2.475 1.4,4.923 2.164,7.37a0.773,0.773 0,0 0,1.247 0.43c1.99,-1.351 3.98,-2.68 5.864,-4.176a0.711,0.711 0,0 0,-0.075 -1.114c-2.206,-1.515 -5.187,-3.751 -7.987,-3.766 -0.712,0 -1.21,1 -0.488,1.414a30.854,30.854 0,0 0,3.691 1.386,20.2 20.2,0 0,1 4,2.137q0.042,-0.609 0.083,-1.218c-2.106,1.3 -4.089,2.751 -6.093,4.2l1.183,0.237c-0.854,-2.418 -1.731,-4.818 -2.679,-7.2a0.486,0.486 0,0 0,-0.912 0.3Z" fill="#313133"/>
	<path d="M58.5769,29.238a30.747,30.747 0,0 0,5.3 0.348,0.49 0.49,0 0,0 0,-0.979 30.146,30.146 0,0 0,-5.21 -0.016c-0.343,0.025 -0.48,0.592 -0.087,0.647Z" fill="#ffcd23"/>
	<path d="M0.238,29.238a30.751,30.751 0,0 0,5.3 0.348,0.49 0.49,0 0,0 0,-0.979 30.146,30.146 0,0 0,-5.21 -0.016c-0.343,0.025 -0.48,0.592 -0.088,0.647Z" fill="#ffcd23"/>
	<path d="M11.825,26.403l-0.089,-0.078a1,1 0,0 0,-1.409 1.409l0.078,0.088a1,1 0,0 0,1.42 -1.419Z" fill="#ffcd23"/>
	<path d="M36.3109,27.734c-0.032,2.2 0.329,4.636 0.3,6.831" stroke-width="0.05" fill="#00000000" stroke="#251a51"/>
	<path d="M46.542,20.279l4.578,-1.284 0.271,0.829 -4.619,1.429Z" fill="#251a51"/>
	<path d="M49.463,20.087a0.568,0.568 0,1 1,-0.568 -0.568A0.568,0.568 0,0 1,49.463 20.087Z" fill="#e4e1ea"/>
	<path d="M30.4369,6.94c0.1,0.153 0.4,0.449 0.5,0.6" stroke-width="0.05" fill="#00000000" stroke="#251a51"/>
	<path d="M26.271,7.526c0.1,0.153 0.4,0.449 0.5,0.6" stroke-width="0.05" fill="#00000000" stroke="#251a51"/>
</svg>
