<svg xmlns="http://www.w3.org/2000/svg" xmlns:android="http://schemas.android.com/apk/res/android" width="44.603dp" height="48.237dp" viewportWidth="44.603" viewportHeight="48.237">
	<path d="M27.803,0.001v15.943l-8.4,-4.849 -8.4,4.849L11.003,9.701Z" fill="#707070"/>
	<path d="M44.603,9.701v38.538h-8.4L36.203,20.792l-8.4,-4.849L27.803,0.001Z" fill="#313133"/>
	<path d="M22.203,15.942v32.294h11.2L33.403,22.41ZM25.454,30.778l-1.568,-0.907v-2.335l1.568,0.907ZM25.454,26.438 L23.886,25.531v-2.335l1.568,0.907ZM25.454,22.098 L23.886,21.191v-2.335l1.568,0.907ZM28.59,32.587 L27.022,31.68v-2.335l1.568,0.907ZM28.59,28.247 L27.022,27.34v-2.335l1.568,0.907ZM28.59,23.907 L27.022,23v-2.335l1.568,0.907ZM31.726,34.396 L30.158,33.489v-2.335l1.568,0.907ZM31.726,30.056 L30.158,29.149v-2.335l1.568,0.907ZM31.726,25.716 L30.158,24.809v-2.335l1.568,0.907Z" fill="#d6a80a"/>
	<path d="M9.704,24.258v23.978h-9.7L0.004,29.858Z" fill="#ffcd23"/>
	<path d="M19.403,29.858v18.379h-9.7L9.703,24.258Z" fill="#d6a80a"/>
	<path d="M9.703,22.318l6.9,3.985L16.603,15.944l-11.2,6.466v2.39Z" fill="#ffcd23"/>
</svg>
