<svg xmlns="http://www.w3.org/2000/svg" xmlns:android="http://schemas.android.com/apk/res/android" width="77.097dp" height="77.097dp" viewportWidth="77.097" viewportHeight="77.097">
	<!--  <path-->
	<!--      d="M0.5,38.549a38.049,38.049 0,1 0,76.098 0a38.049,38.049 0,1 0,-76.098 0z"-->
	<!--      stroke-width="1"-->
	<!--      fill="#00000000"-->
	<!--      stroke="#dbcd00"/>-->
	<!--  <path-->
	<!--      d="M39.36,30.512c0.352,0.7 2.609,7.208 3.256,7.574s5.624,-2.578 5.624,-2.578l-0.078,-0.845s-4.6,1.357 -4.656,1.311 -1.677,-6.2 -1.9,-6.629C41.021,28.18 39.008,29.808 39.36,30.512Z"-->
	<!--      fill="#e7c0ad"-->
	<!--      fill-rule="evenOdd"/>-->
	<path d="M39.06,29.292a2.466,2.466 0,0 1,1.833 -0.755c0.625,0.022 1.052,0.99 1.156,1.4s0.752,3.426 0.752,3.426 -2.21,1.126 -2.232,1.054C40.276,33.444 38.666,30.747 39.06,29.292Z" fill="#313133" fill-rule="evenOdd"/>
	<path d="M25.692,52.575c-0.114,0 -2.284,0.428 -2.86,0.47l-0.121,-0.769 2.873,-0.412Z" fill="#2d2929" fill-rule="evenOdd"/>
	<path d="M48.873,51.463a16.278,16.278 0,0 1,-1.962 0.97c-0.6,0.194 -10.824,0.237 -10.824,0.237s-2.76,0.561 -3.019,0.6 -3.1,0.366 -3.148,0.151 0.3,-2.609 0.3,-2.609a29.875,29.875 0,0 1,4.161 0.711c-0.054,0.193 0.253,0.28 0.253,0.28Z" fill="#2d2929" fill-rule="evenOdd"/>
	<path d="M34.712,38.24c0.237,0.151 9.218,1.359 10.059,2.3s3.741,8.958 3.546,8.958 -2.956,1.042 -2.956,1.042 -1.895,-8.491 -2.067,-8.469 -6.728,-0.594 -8.043,-0.508 -2.178,0.022 -2.372,-0.949S34.712,38.24 34.712,38.24Z" fill="#262628" fill-rule="evenOdd"/>
	<path d="M32.727,51.269a4.02,4.02 0,1 0,-4.02 4.02A4.02,4.02 0,0 0,32.727 51.269Z" fill="#313133" fill-rule="evenOdd"/>
	<path d="M31.363,51.269a2.657,2.657 0,1 0,-2.657 2.657A2.657,2.657 0,0 0,31.363 51.269Z" fill="#ece2ba" fill-rule="evenOdd"/>
	<path d="M30.568,51.27a1.862,1.862 0,1 0,-1.862 1.862A1.862,1.862 0,0 0,30.568 51.27Z" fill="#717172" fill-rule="evenOdd"/>
	<path d="M29.297,51.27a0.591,0.591 0,1 0,-0.59 0.59A0.591,0.591 0,0 0,29.297 51.27Z" fill="#ece2ba" fill-rule="evenOdd"/>
	<path d="M45.18,21.665s1.563,1.871 1.6,1.962 -0.173,0.922 -0.032,1.083 0.873,0.712 0.83,0.873a0.784,0.784 0,0 1,-0.631 0.415c-0.248,-0.011 -0.174,0.168 -0.174,0.168a1.332,1.332 0,0 1,-0.387 1.379,2.978 2.978,0 0,1 -2.285,0.992 1.546,1.546 0,0 1,-0.668 -0.194,1.026 1.026,0 0,0 -1.261,0.313 4.022,4.022 0,0 0,-0.809 1.574l-2.417,-2.228a2.13,2.13 0,0 0,1.026 -0.747,5.578 5.578,0 0,0 0.431,-1.649s-1.11,-2.027 -0.4,-3.062S45.18,21.665 45.18,21.665Z" fill="#f9d8c7" fill-rule="evenOdd"/>
	<path d="M44.237,28.546a1.136,1.136 0,0 1,-0.135 -0.009,1.546 1.546,0 0,1 -0.668,-0.194 1.026,1.026 0,0 0,-1.261 0.313,3.7 3.7,0 0,0 -0.633,1.047 3.1,3.1 0,0 1,-0.511 -0.381,8.822 8.822,0 0,1 1.348,-1.633c0.3,-0.259 0.219,-0.414 0.113,-0.453s-1.321,0 -1.159,-0.092c0.033,-0.02 2.212,-0.241 2.221,-0.237 0.058,0.023 1.062,0.838 0.917,1.358A0.391,0.391 0,0 1,44.237 28.546Z" fill="#f8cbb1" fill-rule="evenOdd"/>
	<path d="M46.135,22.815l0.275,0.336c-0.839,0.228 -2.643,0.731 -2.643,0.731s0.046,0.177 0.1,0.424l2.659,-0.1s0.054,1.11 0.05,1.179 -0.1,0.067 -0.231,-0.036a3.16,3.16 0,0 1,-0.224 -0.949l-2.2,0.172a6.33,6.33 0,0 1,0.134 0.915,2.558 2.558,0 0,1 -0.345,1.17c0.016,-0.032 -0.453,-2.959 -0.453,-2.959Z" fill="#ebc1a9" fill-rule="evenOdd"/>
	<path d="M45.422,23.495c-0.447,0.243 -0.652,0.658 -0.464,0.582s1.568,-0.364 1.656,-0.465 -0.007,-0.241 -0.044,-0.287C46.404,23.12 45.589,23.404 45.422,23.495Z" fill="#262628" fill-rule="evenOdd"/>
	<path d="M42.537,26.037a2.7,2.7 0,0 1,-1.55 1.4,1.382 1.382,0 0,1 -0.625,0.135 2.36,2.36 0,0 0,0.275 -0.221,3.084 3.084,0 0,1 -0.733,0.027 1.952,1.952 0,0 0,-0.631 0.119c0.033,-0.038 0.361,-0.27 0.361,-0.27a0.688,0.688 0,0 1,-0.566 0.108,1.182 1.182,0 0,1 -0.561,-0.2 3.727,3.727 0,0 0,0.582 -0.038s-0.544,-0.156 -0.345,-0.183 1.045,-0.175 1.582,-1.453Z" fill="#313133" fill-rule="evenOdd"/>
	<path d="M45.809,26.794c-1.371,0.456 -1.847,-0.764 -2.088,-0.647a4,4 0,0 1,-0.334 0.933s0.448,-0.086 0.318,-0.027c-0.687,0.315 -0.55,2.059 -0.512,2.043s0.4,-0.3 0.4,-0.3 -0.221,0.361 -0.156,0.329l0.544,-0.27 0.226,-0.119 -0.086,0.264s0.264,-0.14 0.728,-0.372a2.142,2.142 0,0 0,0.755 -1s-0.005,0.2 0.011,0.167C45.901,27.231 45.794,27.415 45.809,26.794Z" fill="#313133" fill-rule="evenOdd"/>
	<path d="M42.857,24.285l3.381,-0.314c0.027,-0.111 0.073,-0.125 0.307,-0.22l0.267,-0.107a4.286,4.286 0,0 1,0.017 1.494c-0.08,0.3 -0.151,0.43 -0.273,0.348 -0.325,-0.22 -0.124,-1.2 -0.439,-1.179l-3.216,0.215Z" fill="#3e3b3a" fill-rule="evenOdd"/>
	<path d="M44.856,49.05a21.352,21.352 0,0 0,-0.138 2.292c0.076,-0.022 2.5,-0.071 3.729,-0.2s2.577,-1.164 2.178,-1.423 -2.523,-0.1 -2.932,-0.259a4.349,4.349 0,0 1,-0.895 -0.55Z" fill="#a95c40" fill-rule="evenOdd"/>
	<path d="M49.61,49.568a12.093,12.093 0,0 1,-1.922 -0.105,4.352 4.352,0 0,1 -0.895,-0.55l-0.377,0.027a2.351,2.351 0,0 0,0.738 0.991,8.266 8.266,0 0,0 2.027,0.14C49.375,50.04 49.537,49.785 49.61,49.568Z" fill="#76564b" fill-rule="evenOdd"/>
	<path d="M44.708,50.966c-0.011,0.231 -0.01,0.385 0.01,0.379 0.076,-0.022 2.5,-0.071 3.729,-0.2s2.577,-1.164 2.178,-1.423a0.929,0.929 0,0 0,-0.334 -0.1A3.525,3.525 0,0 1,48.301 50.686C47.325,50.767 45.38,50.923 44.708,50.966Z" fill="#fffadc" fill-rule="evenOdd"/>
	<path d="M34.086,38.208c0.237,0.151 9.535,1.67 10.328,2.362s3.471,8.893 3.277,8.893 -2.956,1.042 -2.956,1.042 -1.528,-7.521 -2.2,-7.887a39.612,39.612 0,0 0,-7.913 -1.09c-1.315,0.086 -2.178,0.022 -2.372,-0.949S34.086,38.208 34.086,38.208Z" fill="#313133" fill-rule="evenOdd"/>
	<path d="M37.217,38.905l0.217,0.046h0a21.538,21.538 0,0 1,-1.875 2.1c2.48,-0.129 6.758,0.543 7.326,0.993s2.221,6.461 2.674,7.118c0.395,0.573 1.724,0.375 2.058,0.315 -0.49,0.126 -2.88,1.028 -2.88,1.028s-1.528,-7.521 -2.2,-7.887a39.614,39.614 0,0 0,-7.913 -1.09c-1.315,0.086 -2.178,0.022 -2.372,-0.949a0.815,0.815 0,0 1,0.025 -0.386c0.331,0.013 0.62,0.052 0.62,0.052C33.023,40.327 35.924,38.761 37.217,38.905Z" fill="#262628" fill-rule="evenOdd"/>
	<path d="M39.69,27.581c-4.653,0.672 -8.88,7.605 -7.738,13.452 0.307,1.574 4.188,-1.217 5.727,-2.248 -0.434,-2.493 1.057,-4.632 2.671,-6.5a9.893,9.893 0,0 0,1.24 -1.509C42.173,29.44 40.181,27.51 39.69,27.581Z" fill="#313133" fill-rule="evenOdd"/>
	<path d="M50.124,38.138c-0.216,-0.841 -0.776,-2.458 -0.776,-2.458l1.617,0.41 0.3,1.768Z" fill="#ffcd23" fill-rule="evenOdd"/>
	<path d="M48.695,34.326c0.821,-1.026 3.955,-1.1 3.975,-1.091l-0.312,3.257C51.239,36.483 47.432,35.905 48.695,34.326Z" fill="#ffcd23" fill-rule="evenOdd"/>
	<path d="M48.695,34.326a1.688,1.688 0,0 1,0.536 -0.415,3.483 3.483,0 0,1 0.1,0.761c0.042,0.62 1.351,1.323 2.249,1.763C50.082,36.255 47.652,35.634 48.695,34.326Z" fill="#d6a80a" fill-rule="evenOdd"/>
	<path d="M49.4869,33.946c0.368,-0.353 1.5,-0.2 1.639,0.474 0.129,0.636 -0.631,1.211 -1.241,1.268S49.4869,33.946 49.4869,33.946Z" fill="#df9f40" fill-rule="evenOdd"/>
	<path d="M39.609,43.446c1.364,-2.6 -5.168,-1.883 -6.065,-1.9 -1.2,-0.027 -1.794,-0.522 -2.937,-0.561 -1.639,-0.056 -3.083,-0.316 -3.493,0.633a3.981,3.981 0,0 0,-0.1 2.193C28.699,43.974 39.114,44.39 39.609,43.446Z" fill="#313133" fill-rule="evenOdd"/>
	<path d="M24.368,45.382c-1.243,-0.135 -0.938,2.2 -0.69,2.054C23.707,47.418 24.368,45.382 24.368,45.382Z" fill="#a61d35" fill-rule="evenOdd"/>
	<path d="M25.575,45.63a2.489,2.489 0,0 0,-0.323 -0.377l-1.166,0.024 -0.649,2.853Z" fill="#dfa24b" fill-rule="evenOdd"/>
	<path d="M40.169,52.055c-0.007,-0.306 -3.364,-3.684 -2.8,-5.344s2.064,-1.445 2.243,-2.48 0.129,-1.063 0.129,-1.067 -6.339,0.014 -12.452,0.014c-2.551,1.517 -4.615,5.864 -4.949,8.629l6.007,-1.778 7.219,2.039Z" fill="#d6a80a" fill-rule="evenOdd"/>
	<path d="M40.169,52.055c-0.007,-0.306 -3.364,-3.684 -2.8,-5.344s2.005,-1.4 2.243,-2.48a2.605,2.605 0,0 0,0.128 -1.068h0c-0.41,1.752 -4.978,2.173 -5.29,2.9 -0.259,0.6 0.556,4.029 0.556,4.029a5.659,5.659 0,0 0,0.8 1.975Z" fill="#d6a80a" fill-rule="evenOdd"/>
	<path d="M60.259,51.26a4.02,4.02 0,1 0,-4.02 4.02A4.02,4.02 0,0 0,60.259 51.26Z" fill="#313133" fill-rule="evenOdd"/>
	<path d="M58.896,51.26a2.657,2.657 0,1 0,-2.657 2.657A2.657,2.657 0,0 0,58.896 51.26Z" fill="#ece2ba" fill-rule="evenOdd"/>
	<path d="M58.101,51.26a1.862,1.862 0,1 0,-1.862 1.862A1.862,1.862 0,0 0,58.101 51.26Z" fill="#717172" fill-rule="evenOdd"/>
	<path d="M56.829,51.26a0.59,0.59 0,1 0,-0.59 0.59A0.59,0.59 0,0 0,56.829 51.26Z" fill="#ece2ba" fill-rule="evenOdd"/>
	<path d="M51.895,51.228c4.344,0.032 2.724,-1.674 8.112,-2.229a4.14,4.14 0,0 0,-4.992 -2.113A4.737,4.737 0,0 0,51.895 51.228Z" fill="#ffcd23" fill-rule="evenOdd"/>
	<path d="M51.895,51.227c4.344,0.032 2.725,-1.674 8.112,-2.229 0.077,0 0.012,-0.3 -0.153,-0.31a7.479,7.479 0,0 0,-2.735 0.385c-0.938,0.42 -1.984,1.2 -2.846,1.488a11.7,11.7 0,0 1,-2.368 0.36C51.806,50.921 51.764,51.23 51.895,51.227Z" fill="#d6a80a" fill-rule="evenOdd"/>
	<path d="M51.239,36.472c-0.374,0.04 -1.8,0.042 -1.941,0.539s2.7,7.87 2.178,10.285 -1.843,3.541 -2.759,3.807 -13.164,0.49 -13.164,0.49l0.011,0.476s11.47,-0.029 12.893,-0.116 3.967,-2.307 5.132,-4.463S51.239,36.472 51.239,36.472Z" fill="#6a4820" fill-rule="evenOdd"/>
	<path d="M51.239,36.472c-0.374,0.04 -1.8,0.042 -1.941,0.539s2.7,7.87 2.178,10.285a5.132,5.132 0,0 1,-5.05 4.405c-0.815,0.013 -7.325,0.124 -10.867,0.131l0.006,0.237s11.47,-0.029 12.893,-0.116c3.2,-0.193 4.1,-4.573 7.328,-5.109C56.046,46.8 51.746,37.835 51.239,36.472Z" fill="#ffcd23" fill-rule="evenOdd"/>
	<path d="M51.239,36.472c-0.043,0 -0.1,0.009 -0.169,0.013l-0.618,0.049h0c4.865,7.81 2.356,12 1.662,12.989 1.028,-1.185 2.062,-2.505 3.673,-2.773C55.402,45.356 51.741,37.835 51.239,36.472Z" fill="#d6a80a" fill-rule="evenOdd"/>
	<path d="M28.009,45.655a7.925,7.925 0,0 0,-5.682 6.38l13.648,0.043C36.551,46.64 34.013,43.653 28.009,45.655Z" fill="#ffcd23" fill-rule="evenOdd"/>
	<path d="M52.364,36.492s0.312,-3.107 0.312,-3.257c0,-0.015 -0.5,-0.033 -0.507,0.024l-0.309,3.2C51.87,36.527 52.369,36.554 52.364,36.492Z" fill="#313133" fill-rule="evenOdd"/>
	<path d="M52.377,36.386c0.344,0 0.634,-2.976 0.292,-3.046Z" fill="#d4ead7" fill-rule="evenOdd"/>
	<path d="M43.17,25.599a10.2,10.2 0,0 0,1.132 1.768,13.449 13.449,0 0,0 0.949,1.089l-0.765,0.259a19.64,19.64 0,0 1,-1.7 -2.135c-0.334,-0.615 -0.259,-0.712 -0.259,-0.712Z" fill="#5a5749" fill-rule="evenOdd"/>
	<path d="M47.405,22.724c-0.13,0.022 -3.928,1.172 -3.928,1.172s0.955,2.8 -0.108,3.213c-1.335,0.513 -4.188,-0.14 -4.28,-0.528 -1.015,-4.282 0.381,-5.645 2.319,-6.508A4.292,4.292 0,0 1,47.405 22.724Z" fill="#262628" fill-rule="evenOdd"/>
	<path d="M47.405,22.724c-0.129,0.022 -3.928,1.172 -3.928,1.172s0.955,2.8 -0.108,3.213c-1.335,0.513 -4.188,-0.14 -4.28,-0.528 -0.018,-0.073 -0.034,-0.145 -0.05,-0.217 0.181,0.051 0.473,0.13 0.818,0.213a13.173,13.173 0,0 0,2.922 0.4,0.832 0.832,0 0,0 0.766,-0.852 11.867,11.867 0,0 0,-0.5 -2.383s3.356,-1.069 4.248,-1.34C47.335,22.506 47.372,22.613 47.405,22.724Z" fill="#36434e" fill-rule="evenOdd"/>
	<path d="M27.447,46.193c5.692,-1.9 8.268,0.686 8.031,5.593q-0.006,0.126 -0.015,0.255l0,0.035 0.513,0v-0.01q0.012,-0.119 0.023,-0.237l0.005,-0.057q0.008,-0.1 0.015,-0.19c0.372,-5.125 -2.19,-7.87 -8.011,-5.93a8.737,8.737 0,0 0,-3.673 2.275A9.012,9.012 0,0 1,27.447 46.193Z" fill="#b78908" fill-rule="evenOdd"/>
	<path d="M24.209,42.485h9.672v0.693h-9.672z" fill="#94a8b2"/>
	<path d="M18.722,30.119h9.973v10.555h-9.973z" fill="#707070"/>
	<path d="M18.458,29.558h10.501v1.552h-10.501z" fill="#707070"/>
	<path d="M18.469,40.027h10.479v0.693h-10.479z" fill="#94a8b2"/>
	<path d="M23.742,40.253h0.528l0.962,2.706h-0.528Z" fill="#717f86" fill-rule="evenOdd"/>
	<path d="M26.257,40.253h0.528l0.962,2.706h-0.528Z" fill="#717f86" fill-rule="evenOdd"/>
	<path d="M47.632,34.912c0.068,-0.073 1.408,-1.146 1.494,-1.179a7.774,7.774 0,0 1,1.38 0.119c0.129,0.054 0.119,1.283 0.119,1.283a4.269,4.269 0,0 1,-0.772 0.674c-0.155,0.027 -0.78,-0.394 -0.78,-0.394l-0.054,-0.27a0.68,0.68 0,0 1,-0.319 0.326,1.7 1.7,0 0,1 -0.9,-0.046C47.871,35.381 47.632,34.912 47.632,34.912Z" fill="#f9d8c7" fill-rule="evenOdd"/>
	<path d="M49.358,35.275a0.426,0.426 0,1 0,-0.431 -0.426A0.429,0.429 0,0 0,49.358 35.275Z" fill="#3e3b3a" fill-rule="evenOdd"/>
	<path d="M39.054,30.291c0.352,0.7 2.915,7.472 3.562,7.795s5.528,-2.585 5.528,-2.585l-0.226,-0.829s-4.116,1.711 -4.569,1.452 -1.827,-6.569 -2.044,-7C40.715,27.959 38.702,29.587 39.054,30.291Z" fill="#f9d8c7" fill-rule="evenOdd"/>
	<path d="M50.699,34.283a0.219,0.219 0,0 1,0.119 0.035l0.388,-0.039s0.245,0.152 0.192,0.313a0.313,0.313 0,0 1,-0.268 0.235l-0.26,-0.016a0.231,0.231 0,0 1,-0.17 0.079,0.308 0.308,0 0,1 0,-0.607Z" fill="#5a5749" fill-rule="evenOdd"/>
	<path d="M49.825,34.083c0.048,-0.027 0.68,-0.232 0.68,-0.232l0.775,0.156s0.658,0.647 0.587,0.69 -0.4,0.066 -0.458,-0.043a1.36,1.36 0,0 0,-0.243 -0.275l-0.5,-0.135 -0.5,0.146Z" fill="#f9d8c7" fill-rule="evenOdd"/>
	<path d="M46.924,26.216a3.2,3.2 0,0 0,-1.579 0.119s0.3,0.07 0.216,0.075a2.567,2.567 0,0 0,-1.175 0.782s0.447,-0.086 0.318,-0.027c-0.687,0.315 -0.55,2.059 -0.512,2.043s0.4,-0.3 0.4,-0.3 -0.221,0.361 -0.156,0.329l0.545,-0.27 0.226,-0.119 -0.086,0.264s0.264,-0.14 0.728,-0.372a2.143,2.143 0,0 0,0.755 -1s-0.005,0.2 0.011,0.167A3.661,3.661 0,0 0,46.924 26.216Z" fill="#313133" fill-rule="evenOdd"/>
	<path d="M47.001,26.202c-0.455,-0.853 -2.153,0.969 -2.771,0.226 0,0 0,0.232 0.544,0.593C45.706,27.639 47.282,27.054 47.001,26.202Z" fill="#313133" fill-rule="evenOdd"/>
	<path d="M46.788,23.764s0.034,0.922 0.007,1.218c-0.03,0.334 -0.115,0.468 -0.2,0.412 -0.173,-0.111 -0.165,-1.3 -0.1,-1.493A1.59,1.59 0,0 1,46.788 23.764Z" fill="#717f86" fill-rule="evenOdd"/>
	<path d="M46.788,23.764s0.009,0.24 0.014,0.515c-0.059,0.379 -0.131,0.847 -0.174,1.128a0.072,0.072 0,0 1,-0.035 -0.012,0.417 0.417,0 0,1 -0.1,-0.25l0.226,-1.354Z" fill="#81939c" fill-rule="evenOdd"/>
	<path d="M38.721,29.73c-0.148,-1.216 2.472,-2.276 2.95,0.237 0.078,0.411 0.752,3.426 0.752,3.426s-2.285,1.3 -2.307,1.226A26.633,26.633 0,0 1,38.721 29.73Z" fill="#262628" fill-rule="evenOdd"/>
	<path d="M24.108,40.615a0.116,0.116 0,1 0,-0.119 -0.116A0.118,0.118 0,0 0,24.108 40.615Z" fill="#b7c9ba" fill-rule="evenOdd"/>
	<path d="M26.623,40.581a0.116,0.116 0,1 0,-0.119 -0.116A0.118,0.118 0,0 0,26.623 40.581Z" fill="#b7c9ba" fill-rule="evenOdd"/>
	<path d="M27.41,42.829a0.116,0.116 0,1 0,-0.119 -0.116A0.118,0.118 0,0 0,27.41 42.829Z" fill="#b7c9ba" fill-rule="evenOdd"/>
	<path d="M24.876,42.861a0.116,0.116 0,1 0,-0.119 -0.116A0.117,0.117 0,0 0,24.876 42.861Z" fill="#b7c9ba" fill-rule="evenOdd"/>
	<path d="M27.661,43.776c-0.689,0.252 -3.427,2.8 -3.155,3.1s2.012,-1.788 3.424,-2.327 3.407,-0.313 5.876,-0.28 3.083,-0.471 2.48,-0.6S28.537,43.456 27.661,43.776Z" fill="#f7c37a" fill-rule="evenOdd"/>
	<path d="M33.81,51.346c-0.252,0.05 -2.355,0.215 -2.182,-0.112s1.876,-2.3 0.216,-3.4 -3.795,-0.678 -5.434,-0.047a7.223,7.223 0,0 0,-2.242 1.142,7.894 7.894,0 0,1 3.083,-2.264C34.661,43.829 35.82,50.946 33.81,51.346Z" fill="#d6a80a" fill-rule="evenOdd"/>
	<path d="M59.308,48.154l-0.587,0.264a5.96,5.96 0,0 0,-2.1 -0.938,3.318 3.318,0 0,0 -1.822,0.173 2.063,2.063 0,0 1,1.25 -0.744A3.759,3.759 0,0 1,59.308 48.154Z" fill="#d6a80a" fill-rule="evenOdd"/>
	<path d="M28.695,40.027L28.695,31.115L26.518,31.115l-1.121,8.917Z" fill="#313133" fill-rule="evenOdd"/>
	<path d="M26.518,31.111h2.441v-1.552h-2.441v1.552Z" fill="#313133" fill-rule="evenOdd"/>
	<path d="M37.433,38.95ZM39.067,32.678s-0.41,0.41 -1.445,1.725c-0.879,1.117 -0.9,3.151 -1.336,4.2 -0.013,0.032 -0.026,0.062 -0.04,0.092a1.335,1.335 0,0 1,-0.237 0.366,16.384 16.384,0 0,1 -3.009,1.9c-0.152,0.08 -0.3,0.156 -0.434,0.225l-0.279,0.14a5.926,5.926 0,0 0,0.577 0.138q0.066,-0.012 0.136,-0.029c0.107,-0.026 0.22,-0.061 0.337,-0.1a22.4,22.4 0,0 0,4.1 -2.392l0.112,-0.076 0.134,-0.09c-0.367,-2.106 0.641,-3.96 1.936,-5.609a16.947,16.947 0,0 1,-0.895 -3.447,0.823 0.823,0 0,1 0,-0.168c-0.052,0.148 -0.115,0.336 -0.189,0.573A4.682,4.682 0,0 0,39.067 32.678Z" fill="#262628" fill-rule="evenOdd"/>
	<path d="M39.615,33.171c0.2,0.584 0.392,1.083 0.5,1.443a1.743,1.743 0,0 0,0.453 -0.2l0.158,-0.083 0.1,-0.051c0.193,-0.1 0.405,-0.22 0.611,-0.333a5.3,5.3 0,0 1,-0.747 -0.018c-0.048,-0.006 -0.094,-0.013 -0.137,-0.021a0.62,0.62 0,0 1,-0.2 -0.069,1.47 1.47,0 0,1 -0.208,-0.468c-0.058,-0.168 -0.123,-0.374 -0.192,-0.6 -0.1,-0.342 -0.217,-0.737 -0.328,-1.139 -0.188,-0.677 -0.372,-1.374 -0.5,-1.875l-0.084,-0.324c-0.063,-0.244 -0.1,-0.392 -0.1,-0.392a3.352,3.352 0,0 0,-0.212 0.522,0.818 0.818,0 0,0 0,0.168A16.943,16.943 0,0 0,39.615 33.171Z" fill="#313133" fill-rule="evenOdd"/>
	<path d="M40.739,34.369a15.138,15.138 0,0 0,1.877 3.72c0.58,0.29 4.573,-2.023 5.384,-2.5l0.144,-0.085 -0.01,-0.035c-0.118,0.01 -0.2,0.009 -0.2,0.009s-4.648,2.368 -5.123,2.045c-0.428,-0.292 -1.2,-2.969 -1.352,-3.485l-0.024,-0.086c-0.205,0.114 -0.418,0.23 -0.611,0.333l-0.1,0.051Z" fill="#f8cbb3" fill-rule="evenOdd"/>
	<path d="M48.135,35.466l0.01,0.035 0.1,0.007 0.042,0a1.151,1.151 0,0 0,0.417 -0.038,0.577 0.577,0 0,0 0.2,-0.146 0.721,0.721 0,0 0,0.12 -0.18l0.031,0.159 0.022,0.111a4.941,4.941 0,0 0,0.608 0.35,0.373 0.373,0 0,0 0.172,0.044 0.719,0.719 0,0 0,0.229 -0.152l0.048,-0.042 0.025,-0.022c0.071,-0.063 0.144,-0.132 0.211,-0.2 0.144,-0.14 0.26,-0.261 0.26,-0.261s0,-0.069 0,-0.175v-0.006c-0.021,0.048 -0.044,0.1 -0.056,0.122 -0.027,0.055 -0.409,0.364 -0.527,0.478a0.412,0.412 0,0 1,-0.382 0.047,0.666 0.666,0 0,1 -0.237,-0.121 0.939,0.939 0,0 1,-0.111 -0.109c-0.033,-0.038 -0.065,-0.078 -0.094,-0.119a0.431,0.431 0,0 1,-0.249 -0.22,0.974 0.974,0 0,1 -0.733,0.424Z" fill="#d99e67" fill-rule="evenOdd"/>
	<path d="M50.468,36.878l-0.5,0.158a44.251,44.251 0,0 1,2.048 5.389c0.625,2.286 0.086,5.736 0.453,5.24s0.766,-3.709 0.043,-5.94A40.679,40.679 0,0 0,50.468 36.878Z" fill="#d6a80a" fill-rule="evenOdd"/>
	<path d="M39.778,21.602c-0.762,0.952 -0.864,2.737 -0.313,2.922s2.566,-0.022 2.372,-0.517 -1.165,-1.383 -0.669,-2.05 2.62,-1.333 2.4,-1.616C43.065,19.676 40.54,20.649 39.778,21.602Z" fill="#313133" fill-rule="evenOdd"/>
	<path d="M33.735,32.822a12.678,12.678 0,0 1,3.795 -4.151c1.294,-0.8 1.641,-0.919 1.5,-0.955 -4.1,1.113 -7.669,6.914 -7.23,12.214C31.8,39.932 32.463,34.829 33.735,32.822Z" fill="#262628" fill-rule="evenOdd"/>
	<path d="M45.605,26.968l0.108,-0.144 0.075,-0.1a2.637,2.637 0,0 1,-0.938 0.046c-0.345,-0.088 -0.3,-0.057 -0.446,-0.151a0.417,0.417 0,0 1,-0.174 -0.191s0,0.006 0,0.017a0.358,0.358 0,0 0,0.039 0.1,1.3 1.3,0 0,0 0.381,0.39q0.056,0.041 0.122,0.085a1.787,1.787 0,0 0,1.981 -0.091,0.92 0.92,0 0,0 0.146,-0.153 0.608,0.608 0,0 0,0.1 -0.576,1.63 1.63,0 0,1 -0.081,0.159 1.417,1.417 0,0 1,-0.087 0.132,0.8 0.8,0 0,1 -0.279,0.26c0.008,-0.012 0.07,-0.326 0.07,-0.326a3.334,3.334 0,0 1,-0.816 0.495A0.82,0.82 0,0 1,45.605 26.968Z" fill="#262628" fill-rule="evenOdd"/>
	<path d="M26.865,48.168L30.827,48.168A0.143,0.143 0,0 1,30.97 48.311L30.97,48.311A0.143,0.143 0,0 1,30.827 48.454L26.865,48.454A0.143,0.143 0,0 1,26.722 48.311L26.722,48.311A0.143,0.143 0,0 1,26.865 48.168z" fill="#9d6a28"/>
	<path d="M26.865,48.859L30.827,48.859A0.143,0.143 0,0 1,30.97 49.002L30.97,49.002A0.143,0.143 0,0 1,30.827 49.145L26.865,49.145A0.143,0.143 0,0 1,26.722 49.002L26.722,49.002A0.143,0.143 0,0 1,26.865 48.859z" fill="#9d6a28"/>
	<path d="M26.865,49.584L30.822,49.584a0.143,0.143 0,0 1,0.143 0.143v0A0.143,0.143 0,0 1,30.822 49.87L26.865,49.87A0.143,0.143 0,0 1,26.722 49.727v0A0.143,0.143 0,0 1,26.865 49.584Z" fill="#9d6a28"/>
	<path d="M20.998,50.888a0.8,0.8 0,0 1,0.805 0.784,0.764 0.764,0 0,1 -0.071,0.322 0.527,0.527 0,0 1,0.495 0.5,0.536 0.536,0 0,1 -0.565,0.5 0.6,0.6 0,0 1,-0.39 -0.138,0.839 0.839,0 0,1 -0.776,0.435 0.876,0.876 0,0 1,-0.719 -0.337,0.536 0.536,0 0,1 -0.365,0.136 0.514,0.514 0,0 1,-0.427 -0.207,0.844 0.844,0 0,1 -0.262,0.041 0.688,0.688 0,0 1,-0.734 -0.629,0.543 0.543,0 0,1 0.015,-0.128 0.473,0.473 0,0 1,-0.086 0.008,0.438 0.438,0 1,1 0,-0.876 0.465,0.465 0,0 1,0.129 0.018,0.587 0.587,0 0,1 0.616,-0.484 0.627,0.627 0,0 1,0.569 0.322,0.585 0.585,0 0,1 0.619,-0.506 0.6,0.6 0,0 1,0.611 0.439A0.814,0.814 0,0 1,20.998 50.888Z" fill="#707070" fill-rule="evenOdd"/>
	<path d="M15.797,51.222a0.393,0.393 0,0 1,0.4 0.388,0.379 0.379,0 0,1 -0.035,0.159 0.26,0.26 0,0 1,0.245 0.246,0.265 0.265,0 0,1 -0.28,0.248 0.3,0.3 0,0 1,-0.193 -0.068,0.415 0.415,0 0,1 -0.384,0.215 0.433,0.433 0,0 1,-0.356 -0.167,0.265 0.265,0 0,1 -0.18,0.067 0.254,0.254 0,0 1,-0.211 -0.1,0.416 0.416,0 0,1 -0.13,0.02 0.34,0.34 0,0 1,-0.364 -0.311,0.265 0.265,0 0,1 0.008,-0.063 0.235,0.235 0,0 1,-0.043 0,0.217 0.217,0 1,1 0,-0.433 0.232,0.232 0,0 1,0.064 0.009,0.29 0.29,0 0,1 0.3,-0.24 0.311,0.311 0,0 1,0.282 0.159,0.289 0.289,0 0,1 0.306,-0.25 0.3,0.3 0,0 1,0.3 0.217A0.4,0.4 0,0 1,15.797 51.222Z" fill="#707070" fill-rule="evenOdd"/>
</svg>
