<svg xmlns="http://www.w3.org/2000/svg" xmlns:android="http://schemas.android.com/apk/res/android" width="77.097dp" height="77.097dp" viewportWidth="77.097" viewportHeight="77.097">
	<!--  <path-->
	<!--      d="M0.5,38.549a38.049,38.049 0,1 0,76.098 0a38.049,38.049 0,1 0,-76.098 0z"-->
	<!--      stroke-width="1"-->
	<!--      fill="#00000000"-->
	<!--      stroke="#dbcd00"/>-->
	<path d="M64.68,56.471c0,0.015 -11.875,0.027 -26.519,0.027s-26.522,-0.012 -26.522,-0.027 11.872,-0.027 26.522,-0.027S64.68,56.456 64.68,56.471Z" fill="#263238"/>
	<path d="M57.2509,53.042c-1.527,-1 -1.915,-2.913 -1.9,-4.642a1.854,1.854 0,0 1,0.1 -0.848,0.6 0.6,0 0,1 0.717,-0.322c0.219,0.1 0.32,0.342 0.447,0.546a1.7,1.7 0,0 0,0.7 0.63,0.658 0.658,0 0,0 0.6,0.039c0.249,-0.143 0.27,-0.488 0.261,-0.774q-0.025,-0.8 -0.049,-1.6a2.639,2.639 0,0 1,0.067 -0.854,0.894 0.894,0 0,1 0.552,-0.615 0.548,0.548 0,0 1,0.686 0.345,2.616 2.616,0 0,1 0.017,0.357 0.3,0.3 0,0 0,0.186 0.28,0.354 0.354,0 0,0 0.316,-0.139 3.808,3.808 0,0 0,0.668 -1.05,5.276 5.276,0 0,1 0.621,-1.082 1.575,1.575 0,0 1,1.05 -0.615,0.942 0.942,0 0,1 0.98,0.61 1.381,1.381 0,0 1,-0.366 1.151,6.446 6.446,0 0,1 -1.319,1.3 0.529,0.529 0,0 0,-0.22 0.245c-0.058,0.193 0.13,0.378 0.323,0.436a3.4,3.4 0,0 0,0.68 0.059,0.656 0.656,0 0,1 0.566,0.323c0.126,0.29 -0.115,0.6 -0.354,0.811a5.57,5.57 0,0 1,-1.622 0.976,1.884 1.884,0 0,0 -0.6,0.308 0.526,0.526 0,0 0,-0.157 0.612,0.551 0.551,0 0,0 0.6,0.212 3.885,3.885 0,0 0,0.632 -0.256,1.027 1.027,0 0,1 1.176,0.191 0.9,0.9 0,0 1,0.118 0.8,2.089 2.089,0 0,1 -0.423,0.719 5.585,5.585 0,0 1,-2.345 1.712,3.885 3.885,0 0,1 -2.7,0.135" fill="#ffcd23"/>
	<path d="M62.844,42.92a0.21,0.21 0,0 1,-0.028 0.028l-0.084,0.078c-0.075,0.068 -0.184,0.169 -0.322,0.3a10.8,10.8 0,0 0,-1.081 1.209c-0.21,0.271 -0.427,0.577 -0.654,0.91s-0.467,0.692 -0.7,1.077a12.908,12.908 0,0 0,-0.687 1.243c-0.107,0.222 -0.2,0.454 -0.3,0.69l-0.291,0.718a26.121,26.121 0,0 0,-0.968 2.785,12.657 12.657,0 0,0 -0.427,2.365 9.265,9.265 0,0 0,0.012 1.62c0.02,0.191 0.038,0.338 0.054,0.438l0.016,0.114a0.206,0.206 0,0 1,0 0.039,0.227 0.227,0 0,1 -0.009,-0.038l-0.021,-0.113c-0.02,-0.1 -0.042,-0.247 -0.064,-0.438a8.844,8.844 0,0 1,-0.03 -1.626,12.442 12.442,0 0,1 0.417,-2.375 25.5,25.5 0,0 1,0.966 -2.791l0.291,-0.719c0.1,-0.236 0.191,-0.469 0.3,-0.692a12.827,12.827 0,0 1,0.692 -1.246c0.24,-0.386 0.481,-0.743 0.71,-1.076s0.449,-0.638 0.661,-0.908a10.231,10.231 0,0 1,1.1 -1.2c0.14,-0.131 0.253,-0.23 0.329,-0.3l0.088,-0.074A0.224,0.224 0,0 1,62.844 42.92Z" fill="#263238"/>
	<path d="M59.252,47.744a0.569,0.569 0,0 1,-0.031 -0.122c-0.017,-0.079 -0.038,-0.194 -0.062,-0.336 -0.048,-0.285 -0.1,-0.68 -0.157,-1.116s-0.115,-0.83 -0.167,-1.113c-0.026,-0.142 -0.048,-0.256 -0.064,-0.335a0.555,0.555 0,0 1,-0.019 -0.124,0.562 0.562,0 0,1 0.039,0.119c0.022,0.078 0.05,0.191 0.081,0.332 0.062,0.282 0.127,0.677 0.183,1.113l0.142,1.117 0.045,0.338A0.563,0.563 0,0 1,59.252 47.744Z" fill="#263238"/>
	<path d="M62.97,46.964a0.815,0.815 0,0 1,-0.149 0.021c-0.1,0.011 -0.234,0.025 -0.4,0.049 -0.341,0.045 -0.811,0.123 -1.324,0.231s-0.975,0.228 -1.306,0.323c-0.166,0.047 -0.3,0.088 -0.391,0.115a0.075,0.075 0,1 1,-0.007 -0.02c0.09,-0.034 0.222,-0.081 0.387,-0.132 0.329,-0.1 0.79,-0.229 1.305,-0.339a13.383,13.383 0,0 1,1.331 -0.216c0.172,-0.019 0.311,-0.028 0.408,-0.032A0.8,0.8 0,0 1,62.97 46.964Z" fill="#263238"/>
	<path d="M57.723,51.878a0.192,0.192 0,0 1,-0.027 -0.044l-0.067,-0.132c-0.058,-0.115 -0.137,-0.283 -0.232,-0.492 -0.191,-0.418 -0.435,-1 -0.7,-1.654s-0.5,-1.237 -0.682,-1.659l-0.216,-0.5 -0.058,-0.136a0.2,0.2 0,0 1,-0.017 -0.049,0.18 0.18,0 0,1 0.027,0.044l0.067,0.132c0.058,0.115 0.137,0.283 0.232,0.492 0.191,0.418 0.435,1 0.7,1.654s0.5,1.237 0.682,1.659l0.216,0.5 0.058,0.136A0.185,0.185 0,0 1,57.723 51.878Z" fill="#263238"/>
	<path d="M62.65,50.18a0.2,0.2 0,0 1,-0.049 0.021l-0.143,0.051 -0.527,0.183c-0.445,0.154 -1.058,0.375 -1.735,0.619s-1.292,0.459 -1.741,0.6c-0.224,0.073 -0.406,0.13 -0.533,0.167l-0.146,0.041a0.206,0.206 0,0 1,-0.052 0.011,0.186 0.186,0 0,1 0.049,-0.021l0.143,-0.051 0.527,-0.183c0.445,-0.154 1.058,-0.375 1.735,-0.619s1.292,-0.459 1.741,-0.6c0.224,-0.073 0.407,-0.13 0.533,-0.167l0.146,-0.042A0.194,0.194 0,0 1,62.65 50.18Z" fill="#263238"/>
	<path d="M22.43,56.107l0.171,-1.069 -1.914,-0.319 -0.272,1.6 0.117,0.028a21.662,21.662 0,0 0,3.045 0.478C23.992,56.761 22.43,56.107 22.43,56.107Z" fill="#ffcd23"/>
	<path d="M21.016,56.303c-0.008,0 -0.032,-0.029 -0.066,-0.082a1.266,1.266 0,0 0,-0.141 -0.2,0.448 0.448,0 0,0 -0.193,-0.124c-0.057,-0.017 -0.1,-0.014 -0.1,-0.024s0.038,-0.028 0.107,-0.022a0.386,0.386 0,0 1,0.232 0.124,0.708 0.708,0 0,1 0.135,0.219C21.015,56.26 21.024,56.299 21.016,56.303Z" fill="#263238"/>
	<path d="M29.202,55.876l-0.04,-1.082 -1.94,0.059 0.044,1.619 0.12,0a21.654,21.654 0,0 0,3.08 -0.123C30.862,56.214 29.202,55.876 29.202,55.876Z" fill="#ffcd23"/>
	<path d="M29.245,56.097c-0.016,-0.008 0,-0.065 0.035,-0.123s0.089,-0.09 0.1,-0.078 -0.011,0.061 -0.048,0.115S29.262,56.104 29.245,56.097Z" fill="#263238"/>
	<path d="M29.243,55.893c0.01,0.015 -0.022,0.054 -0.076,0.076s-0.1,0.017 -0.108,0 0.035,-0.041 0.083,-0.06S29.233,55.877 29.243,55.893Z" fill="#263238"/>
	<path d="M29.206,55.789c0,0.018 -0.049,0.035 -0.114,0.039s-0.118,-0.009 -0.117,-0.027 0.052,-0.035 0.114,-0.039S29.206,55.771 29.206,55.789Z" fill="#263238"/>
	<path d="M31.833,28.946l-0.109,-0.352a3.206,3.206 0,0 0,-0.171 -0.6,0.93 0.93,0 0,0 -0.155,-0.266 1.428,1.428 0,0 0,-0.273 -0.271c-0.1,-0.061 -0.078,-0.212 0.027,-0.221a1,1 0,0 1,0.6 0.467c0.216,0.314 0.257,-0.278 0.275,-0.493a3.5,3.5 0,0 1,0.178 -0.923c0.1,-0.066 0.2,0.035 0.172,0.249s-0.049,0.863 0.065,0.871 0.192,-1.09 0.192,-1.09 -0.021,-0.238 0.111,-0.234c0.237,0.007 0.067,1.165 0.048,1.275 -0.013,0.076 0.11,0.089 0.12,0.006s0.054,-1.1 0.3,-1.092c0.185,0 -0.131,0.954 -0.024,1.172s0.167,-0.747 0.344,-0.736c0.066,0 0.115,0.016 0,0.564s-0.68,2.021 -0.68,2.021l-1.031,-0.369" fill="#ffbe9d"/>
	<path d="M24.738,28.656l1.745,0.129c0.023,-0.2 0.057,-0.987 0.057,-0.987a0.868,0.868 0,0 0,0.782 -0.789c0.053,-0.721 0.031,-2.387 0.031,-2.387h0a2.514,2.514 0,0 0,-2.54 0.161l-0.112,0.076Z" fill="#ffbe9d"/>
	<path d="M27.111,25.854a0.105,0.105 0,1 1,0.149 0A0.105,0.105 0,0 1,27.111 25.854Z" fill="#263238"/>
	<path d="M27.296,25.699c-0.012,0.012 -0.08,-0.047 -0.179,-0.054s-0.175,0.04 -0.185,0.027 0.008,-0.028 0.041,-0.05a0.245,0.245 0,0 1,0.29 0.021C27.292,25.671 27.302,25.694 27.296,25.699Z" fill="#263238"/>
	<path d="M26.145,25.715a0.105,0.105 0,1 1,-0.146 0.026A0.105,0.105 0,0 1,26.145 25.715Z" fill="#263238"/>
	<path d="M26.211,25.72c-0.012,0.012 -0.08,-0.047 -0.179,-0.054s-0.175,0.04 -0.185,0.027 0.008,-0.028 0.041,-0.05a0.246,0.246 0,0 1,0.291 0.021C26.207,25.691 26.217,25.715 26.211,25.72Z" fill="#263238"/>
	<path d="M26.559,26.565a0.5,0.5 0,0 1,0.163 -0.023c0.026,0 0.047,-0.006 0.051,-0.02a0.142,0.142 0,0 0,-0.014 -0.076l-0.066,-0.207a2.875,2.875 0,0 1,-0.138 -0.541,2.866 2.866,0 0,1 0.191,0.525l0.062,0.208a0.166,0.166 0,0 1,0.008 0.108,0.067 0.067,0 0,1 -0.047,0.038 0.163,0.163 0,0 1,-0.045 0A0.5,0.5 0,0 1,26.559 26.565Z" fill="#263238"/>
	<path d="M26.229,26.654a1.92,1.92 0,0 0,0.479 0.172,0.275 0.275,0 0,1 -0.331,0.089C26.165,26.823 26.229,26.654 26.229,26.654Z" fill="#fff"/>
	<path d="M26.538,27.788a1.681,1.681 0,0 1,-0.924 -0.325,0.891 0.891,0 0,0 0.915,0.513Z" fill="#eb996e"/>
	<path d="M24.712,25.597l0.088,0.517 0.322,-0.006 -0.021,-1.078s1.275,0.1 1.421,-0.412c0,0 0.375,0.564 0.843,0.562 0,0 0.408,-0.042 0.02,-0.609 -0.6,-0.874 -2.728,-0.172 -2.728,-0.172a1.486,1.486 0,0 0,-0.077 0.5C24.57,25.444 24.712,25.597 24.712,25.597Z" fill="#263238"/>
	<path d="M24.541,25.071l2.841,-0.563s-0.2,-1.136 -1.735,-0.806C24.155,24.023 24.541,25.071 24.541,25.071Z" fill="#ffcd23"/>
	<path d="M24.541,25.071c0.04,-0.008 3.472,0.073 3.717,-0.4 0.117,-0.227 -0.9,-0.233 -0.9,-0.233l0.023,0.071Z" fill="#d6a80a"/>
	<path d="M24.541,25.071c0.04,-0.008 3.472,0.073 3.717,-0.4 0.117,-0.227 -0.9,-0.233 -0.9,-0.233l0.023,0.071Z" strokeAlpha="0.2" fill="#d6a80a" fillAlpha="0.2"/>
	<path d="M24.842,25.5c-0.016,-0.006 -0.536,-0.074 -0.486,0.54s0.653,0.361 0.652,0.344S24.842,25.5 24.842,25.5Z" fill="#ffbe9d"/>
	<path d="M24.801,26.184s-0.01,0.008 -0.028,0.018a0.108,0.108 0,0 1,-0.08 0.008,0.265 0.265,0 0,1 -0.141,-0.228 0.354,0.354 0,0 1,0.018 -0.156,0.124 0.124,0 0,1 0.074,-0.088 0.054,0.054 0,0 1,0.065 0.024c0.01,0.016 0.007,0.029 0.01,0.03s0.012,-0.011 0.005,-0.036a0.069,0.069 0,0 0,-0.027 -0.037,0.082 0.082,0 0,0 -0.061,-0.011 0.151,0.151 0,0 0,-0.1 0.1,0.362 0.362,0 0,0 -0.023,0.174 0.278,0.278 0,0 0,0.177 0.253,0.115 0.115,0 0,0 0.1,-0.024C24.801,26.199 24.806,26.185 24.801,26.184Z" fill="#eb996e"/>
	<path d="M26.165,24.203l0.3479,-0.0067l0.0067,0.3479l-0.3479,0.0067z" fill="#263238"/>
	<path d="M26.335,24.007l0.174,-0.0034l0.0034,0.174l-0.174,0.0034z" fill="#263238"/>
	<path d="M31.705,28.493s-0.536,3.416 -0.915,3.434c-0.432,0.02 -1.759,-1.862 -1.759,-1.862h0A3.171,3.171 0,0 0,26.652 28.509l0,-0.162 -2.008,-0.164s0,0.173 0,0.324h-0.889s-1.593,-0.073 -1.832,2.066l1.145,0.905 0.469,1.747a6.442,6.442 0,0 1,-0.315 2.41l-0.144,-0.034 -0.061,1.205c-0.008,0.057 -0.017,0.114 -0.025,0.172h0.016l-0.486,9.62 -2.481,9.317 2.793,0.1 2.575,-9.09s0.223,-7.268 0.45,-7.273c0.382,-0.007 0.625,16.168 0.771,16.131s3.015,-0.007 3.015,-0.007 -0.95,-18.844 -0.943,-18.845h0l-0.246,-3.567 -0.094,-1.031h0c0.545,0.767 1.574,1.964 2.676,1.943 1.793,-0.035 2.045,-5.593 2.045,-5.593Z" fill="#455a64"/>
	<path d="M25.758,39.586a1.814,1.814 0,0 0,0.3 -1.143c0,-0.327 0,-0.622 0,-0.857a2.288,2.288 0,0 1,0.014 -0.356,2.289 2.289,0 0,1 0.025,0.355c0.007,0.22 0.021,0.522 0.017,0.859a3.059,3.059 0,0 1,-0.042 0.474,1.623 1.623,0 0,1 -0.112,0.373 1.117,1.117 0,0 1,-0.135 0.226C25.785,39.564 25.761,39.588 25.758,39.586Z" fill="#263238"/>
	<path d="M24.113,38.06a0.345,0.345 0,0 1,0.015 0.1c0.006,0.064 0.012,0.156 0.014,0.271a1.8,1.8 0,0 1,-0.175 0.877,0.985 0.985,0 0,1 -0.334,0.371 0.8,0.8 0,0 1,-0.389 0.123,0.63 0.63,0 0,1 -0.271,-0.047 0.235,0.235 0,0 1,-0.086 -0.052,0.8 0.8,0 0,0 0.354,0.06 0.794,0.794 0,0 0,0.364 -0.126,0.969 0.969,0 0,0 0.313,-0.355 1.9,1.9 0,0 0,0.184 -0.852A3.458,3.458 0,0 1,24.113 38.06Z" fill="#263238"/>
	<path d="M28.906,39.731s-0.017,0.031 -0.069,0.065a0.448,0.448 0,0 1,-0.251 0.065,0.625 0.625,0 0,1 -0.361,-0.134 1.4,1.4 0,0 1,-0.316 -0.346,1.794 1.794,0 0,1 -0.29,-0.792 1.608,1.608 0,0 1,-0.007 -0.256,0.3 0.3,0 0,1 0.014,-0.093c0.009,0 0,0.134 0.031,0.345a1.918,1.918 0,0 0,0.3 0.766,1.432 1.432,0 0,0 0.3,0.337 0.605,0.605 0,0 0,0.332 0.136,0.464 0.464,0 0,0 0.239,-0.045C28.879,39.751 28.903,39.728 28.906,39.731Z" fill="#263238"/>
	<path d="M22.965,55.401c0,0.015 -0.62,0 -1.382,-0.023s-1.381,-0.062 -1.38,-0.078 0.619,0 1.382,0.023S22.965,55.386 22.965,55.401Z" fill="#263238"/>
	<path d="M29.547,54.981a0.489,0.489 0,0 1,-0.116 0.016l-0.318,0.023c-0.269,0.017 -0.64,0.037 -1.051,0.056s-0.783,0.033 -1.052,0.04l-0.319,0.006a0.059,0.059 0,1 1,0 -0.021l0.318,-0.023c0.269,-0.017 0.64,-0.037 1.051,-0.056s0.782,-0.033 1.051,-0.04l0.319,-0.006A0.489,0.489 0,0 1,29.547 54.981Z" fill="#263238"/>
	<path d="M24.396,39.807a0.235,0.235 0,0 1,0 0.041c0,0.03 0,0.07 0,0.121 0,0.109 0,0.265 -0.008,0.464 -0.009,0.4 -0.027,0.986 -0.057,1.706s-0.07,1.577 -0.126,2.528c-0.029,0.475 -0.06,0.975 -0.1,1.492 -0.022,0.258 -0.043,0.522 -0.088,0.788s-0.1,0.531 -0.159,0.8c-0.479,2.148 -1.017,4.067 -1.437,5.445 -0.209,0.69 -0.4,1.241 -0.532,1.622l-0.161,0.435 -0.043,0.113a0.218,0.218 0,0 1,-0.017 0.038,0.248 0.248,0 0,1 0.011,-0.04l0.038,-0.114 0.151,-0.439c0.126,-0.383 0.31,-0.936 0.515,-1.626 0.41,-1.38 0.942,-3.3 1.421,-5.446 0.057,-0.268 0.115,-0.534 0.159,-0.8s0.065,-0.525 0.088,-0.783c0.043,-0.516 0.076,-1.015 0.106,-1.49 0.059,-0.951 0.1,-1.807 0.138,-2.527l0.074,-1.7c0.008,-0.2 0.014,-0.355 0.018,-0.464l0.006,-0.12A0.222,0.222 0,0 1,24.396 39.807Z" fill="#263238"/>
	<path d="M28.25,55.052a0.2,0.2 0,0 1,0 -0.038l-0.009,-0.111c-0.007,-0.1 -0.016,-0.245 -0.029,-0.428l-0.093,-1.576c-0.075,-1.331 -0.168,-3.17 -0.254,-5.2s-0.15,-3.874 -0.191,-5.206c-0.018,-0.664 -0.033,-1.2 -0.043,-1.578 0,-0.184 -0.007,-0.328 -0.009,-0.429 0,-0.047 0,-0.084 0,-0.112a0.2,0.2 0,0 1,0 -0.038,0.19 0.19,0 0,1 0,0.038l0.006,0.112c0,0.1 0.011,0.245 0.019,0.429 0.014,0.376 0.035,0.914 0.061,1.577l0.207,5.205c0.086,2.032 0.173,3.871 0.238,5.2 0.032,0.663 0.058,1.2 0.076,1.577 0.008,0.184 0.014,0.328 0.019,0.429 0,0.047 0,0.084 0,0.112A0.2,0.2 0,0 1,28.25 55.052Z" fill="#263238"/>
	<path d="M25.944,28.289a1.662,1.662 0,0 1,0 0.283,4.072 4.072,0 0,1 -0.069,0.7l-0.007,0.035 -0.032,-0.017c-0.067,-0.035 -0.136,-0.072 -0.2,-0.113 -0.292,-0.17 -0.54,-0.348 -0.723,-0.47a3.314,3.314 0,0 1,-0.293 -0.2,1.775 1.775,0 0,1 0.314,0.17c0.189,0.114 0.44,0.286 0.729,0.455 0.068,0.04 0.136,0.077 0.2,0.112l-0.039,0.018a5.37,5.37 0,0 0,0.086 -0.693A1.6,1.6 0,0 1,25.944 28.289Z" fill="#263238"/>
	<path d="M26.658,28.524a1.859,1.859 0,0 1,-0.057 0.262c-0.019,0.08 -0.04,0.177 -0.075,0.283a1.488,1.488 0,0 1,-0.064 0.162,0.108 0.108,0 0,1 -0.038,0.046 0.06,0.06 0,0 1,-0.075 -0.009,0.351 0.351,0 0,1 -0.047,-0.092c-0.1,-0.233 -0.184,-0.445 -0.243,-0.6a0.135,0.135 0,1 1,0.036 -0.015c0.069,0.151 0.16,0.36 0.258,0.593a0.424,0.424 0,0 0,0.035 0.075c0.005,0 0,0 0.008,0a0.058,0.058 0,0 0,0.018 -0.023,1.6 1.6,0 0,0 0.065,-0.155c0.036,-0.1 0.061,-0.2 0.085,-0.276A1.016,1.016 0,0 1,26.658 28.524Z" fill="#263238"/>
	<path d="M26.279,35.7a0.387,0.387 0,0 1,-0.009 -0.075c0,-0.055 -0.008,-0.126 -0.014,-0.216 -0.01,-0.194 -0.024,-0.463 -0.042,-0.793 -0.03,-0.676 -0.071,-1.6 -0.117,-2.618l-0.1,-2.619c-0.01,-0.331 -0.018,-0.6 -0.024,-0.794 0,-0.089 0,-0.161 0,-0.216a0.038,0.038 0,1 1,0.011 0l0.014,0.216 0.042,0.793c0.03,0.676 0.072,1.6 0.117,2.619l0.1,2.619c0.01,0.331 0.018,0.6 0.024,0.794 0,0.089 0,0.161 0,0.216A0.391,0.391 0,0 1,26.279 35.7Z" fill="#263238"/>
	<path d="M26.594,30.485l0.9648,-0.0186l0.0038,0.199l-0.9648,0.0186z" fill="#fff"/>
	<path d="M28.477,33.725c-0.015,0 -0.076,-0.729 -0.136,-1.63s-0.1,-1.633 -0.082,-1.634 0.076,0.729 0.136,1.63S28.492,33.724 28.477,33.725Z" fill="#263238"/>
	<path d="M33.057,29.382a9.931,9.931 0,0 1,-1.436 -0.329,9.921 9.921,0 0,1 1.436,0.329Z" fill="#263238"/>
	<path d="M31.914,28.737a0.1,0.1 0,1 1,-0.1 0.1A0.1,0.1 0,0 1,31.914 28.737Z" fill="#263238"/>
	<path d="M27.202,30.027l0.348,-0.0066l0.0066,0.348l-0.348,0.0066z" fill="#ffcd23"/>
	<path d="M27.372,29.83l0.174,-0.0034l0.0034,0.174l-0.174,0.0034z" fill="#ffcd23"/>
	<path d="M32.754,31.804l-0.142,5.608 -8.8,-0.045 0.029,-5.684Z" fill="#ffcd23"/>
	<path d="M27.527,37.377c-0.015,0 0,-1.252 0.043,-2.8s0.083,-2.8 0.1,-2.795 0,1.252 -0.043,2.8S27.542,37.377 27.527,37.377Z" fill="#263238"/>
	<path d="M23.811,37.365a0.332,0.332 0,0 1,0.035 -0.059l0.109,-0.164 0.411,-0.6 1.372,-1.962c0.536,-0.766 1.019,-1.461 1.365,-1.966 0.173,-0.253 0.31,-0.459 0.4,-0.6l0.108,-0.165a0.035,0.035 0,1 1,0.009 0.006l-0.1,0.171c-0.089,0.146 -0.222,0.356 -0.391,0.612 -0.337,0.512 -0.815,1.21 -1.352,1.976s-1.027,1.455 -1.385,1.952l-0.425,0.588 -0.118,0.158A0.315,0.315 0,0 1,23.811 37.365Z" fill="#263238"/>
	<path d="M27.439,37.421c-0.013,0.008 -0.823,-1.256 -1.81,-2.822s-1.776,-2.844 -1.764,-2.852 0.823,1.256 1.81,2.823S27.452,37.413 27.439,37.421Z" fill="#263238"/>
	<path d="M29.852,36.784l-1.4125,-0.0358l0.0073,-0.2889l1.4125,0.0358z" fill="#263238"/>
	<path d="M28.516,36.224a4.371,4.371 0,0 1,0.691 -0.026,4.418 4.418,0 0,1 0.691,0.028 8.766,8.766 0,0 1,-1.383 0Z" fill="#263238"/>
	<path d="M30.974,31.757l-0.055,2.165 -0.3,-0.244 -0.4,0.227 0.055,-2.165Z" fill="#263238"/>
	<path d="M23.662,31.185a15.558,15.558 0,0 0,-0.225 3.146,9.245 9.245,0 0,0 3.227,1.588c0.081,-0.019 0.176,-0.045 0.285,-0.08a0.868,0.868 0,0 0,0.262 -0.136,1.33 1.33,0 0,0 0.269,-0.25 0.114,0.114 0,0 1,0.212 0.038,0.936 0.936,0 0,1 -0.469,0.561 6.767,6.767 0,0 0,0.939 1.249c0.227,0.1 0.876,0.4 0.767,0.452a3.683,3.683 0,0 1,-0.9 -0.174l-1.6,-0.429s-5.3,-0.831 -4.949,-3.263c0.216,-1.491 0.453,-2.834 0.538,-3.174Z" fill="#ffbe9d"/>
	<path d="M21.925,30.575l-0.476,3.247a2.29,2.29 0,0 0,1.461 2.241,19.633 19.633,0 0,0 3.391,1.161c-0.028,-0.005 0.138,-1.449 0.138,-1.449s-2.855,-1.237 -2.945,-1.768a15.961,15.961 0,0 1,0.363 -2.753Z" fill="#455a64"/>
	<path d="M26.302,37.224a0.1,0.1 0,0 1,0 -0.026c0,-0.02 0,-0.045 0,-0.075l0.022,-0.289c0.022,-0.255 0.054,-0.617 0.092,-1.062l0.011,0.019 -1.436,-0.7 -0.415,-0.2c-0.14,-0.074 -0.279,-0.155 -0.418,-0.244a4.136,4.136 0,0 1,-0.4 -0.3c-0.065,-0.055 -0.129,-0.112 -0.191,-0.173a0.342,0.342 0,0 1,-0.083 -0.109,0.287 0.287,0 0,1 -0.023,-0.065 0.411,0.411 0,0 1,-0.014 -0.066,3.489 3.489,0 0,1 0.1,-1.01l0.16,-0.926 0.274,-1.568a3.293,3.293 0,0 0,0.072 -0.6,1.043 1.043,0 0,0 -0.093,-0.443 0.734,0.734 0,0 0,-0.168 -0.232c-0.049,-0.044 -0.08,-0.062 -0.078,-0.064a0.4,0.4 0,0 1,0.085 0.056,0.708 0.708,0 0,1 0.18,0.231 1.05,1.05 0,0 1,0.1 0.452,3.256 3.256,0 0,1 -0.065,0.61l-0.263,1.57 -0.157,0.927 -0.042,0.243c-0.017,0.08 -0.03,0.162 -0.042,0.245a1.853,1.853 0,0 0,-0.013 0.5,0.358 0.358,0 0,0 0.013,0.061 0.235,0.235 0,0 0,0.02 0.057,0.284 0.284,0 0,0 0.072,0.094c0.06,0.06 0.123,0.116 0.187,0.17a4.145,4.145 0,0 0,0.4 0.294c0.136,0.089 0.275,0.169 0.413,0.243l0.414,0.2L26.45,35.76l0.012,0.006v0.013l-0.109,1.06 -0.032,0.288 -0.01,0.075A0.09,0.09 0,0 1,26.302 37.224Z" fill="#263238"/>
	<path d="M26.038,35.576a0.891,0.891 0,0 1,-0.017 0.222c-0.018,0.136 -0.046,0.323 -0.085,0.529s-0.081,0.39 -0.116,0.523a0.838,0.838 0,0 1,-0.07 0.211c-0.015,0 0.057,-0.334 0.133,-0.744A6.161,6.161 0,0 1,26.038 35.576Z" fill="#263238"/>
	<path d="M26.302,37.224a0.179,0.179 0,0 1,-0.05 -0.008l-0.141,-0.034 -0.516,-0.135c-0.435,-0.118 -1.039,-0.271 -1.687,-0.509a6.972,6.972 0,0 1,-0.888 -0.4,4.922 4.922,0 0,1 -0.668,-0.43 3.678,3.678 0,0 1,-0.4 -0.355c-0.044,-0.045 -0.077,-0.082 -0.1,-0.108a0.18,0.18 0,0 1,-0.031 -0.04,1.931 1.931,0 0,1 0.144,0.133 4.518,4.518 0,0 0,0.409 0.34,5.29 5.29,0 0,0 0.668,0.416 7.408,7.408 0,0 0,0.883 0.389c0.644,0.237 1.246,0.4 1.678,0.523l0.512,0.152 0.138,0.044A0.181,0.181 0,0 1,26.302 37.224Z" fill="#263238"/>
	<path d="M26.337,35.92a0.092,0.092 0,1 1,-0.094 -0.09A0.092,0.092 0,0 1,26.337 35.92Z" fill="#263238"/>
	<path d="M39.496,20.667h11.591v35.804h-11.591z" fill="#e0e0e0"/>
	<path d="M47.101,20.942v33.928l5.545,1.6 0.018,-35.53h-5.563" fill="#455a64"/>
	<path d="M47.785,37.39c0.011,0.266 -0.091,0.485 -0.228,0.491s-0.256,-0.205 -0.267,-0.471 0.091,-0.485 0.228,-0.491S47.774,37.124 47.785,37.39Z" fill="#fff"/>
	<path d="M47.529,37.192l1.092,0.146a0.121,0.121 0,0 1,0.105 0.115h0a0.121,0.121 0,0 1,-0.141 0.124l-1.047,-0.178Z" fill="#fff"/>
	<path d="M38.143,19.401v37.07h1.82L39.963,20.945h10.682v35.53h2L52.645,19.401Z" fill="#263238"/>
	<path d="M39.053,20.942h0.91v35.53h-0.91z" fill="#263238"/>
	<path fill="#FF000000" d="M39.053,20.942h0.91v35.53h-0.91z" strokeAlpha="0.5" fillAlpha="0.5"/>
	<path d="M51.755,19.401h0.91v37.07h-0.91z" fill="#263238"/>
	<path fill="#FF000000" d="M51.755,19.401h0.91v37.07h-0.91z" strokeAlpha="0.5" fillAlpha="0.5"/>
	<path d="M43.653,17.238h2.989v0.667h-2.989z" fill="#455a64"/>
	<path d="M45.491,26.519a1.512,1.512 0,0 0,1.146 1.384c0.325,0.079 0.7,0.042 0.956,0.26 0.441,0.374 0.183,1.15 0.481,1.651 0.183,0.308 0.546,0.46 0.752,0.753a1.23,1.23 0,0 1,-0.354 1.585,2.582 2.582,0 0,1 -1.673,0.417 5.214,5.214 0,0 1,-3.534 -1.354,4.521 4.521,0 0,1 -1.21,-4.4" fill="#263238"/>
	<path d="M40.846,29.969s-2.251,1.958 -2.309,1.719a12.64,12.64 0,0 1,-0.176 -3.582c0.035,-0.055 0.076,-0.114 0.124,-0.18a0.85,0.85 0,0 1,0.2 -0.2,1.3 1.3,0 0,1 0.306,-0.172c0.1,-0.029 0.121,-0.168 0.03,-0.2a0.911,0.911 0,0 0,-0.645 0.264c-0.267,0.223 -0.158,-0.307 -0.122,-0.5a3.19,3.19 0,0 0,0.069 -0.855c-0.075,-0.083 -0.18,-0.017 -0.212,0.177s-0.167,0.772 -0.269,0.75 0.1,-1.006 0.1,-1.006 0.076,-0.2 -0.04,-0.233c-0.211,-0.051 -0.343,1.009 -0.353,1.11 -0.007,0.07 -0.119,0.051 -0.107,-0.024s0.22,-0.978 0.006,-1.033c-0.164,-0.042 -0.117,0.871 -0.264,1.037s0.035,-0.7 -0.123,-0.731c-0.059,-0.012 -0.105,-0.014 -0.138,0.5a11.265,11.265 0,0 0,0.045 1.229c-0.14,1.4 -0.413,5.677 1.52,5.53a3.044,3.044 0,0 0,2.806 -1.972Z" fill="#f8b592"/>
	<path d="M42.642,29.332a7.594,7.594 0,0 0,-0.025 -0.938,0.811 0.811,0 0,1 -0.7,-0.771c-0.029,-0.687 0.039,-2.267 0.039,-2.267l1.238,-0.595 1.332,1.073 -0.231,3.487Z" fill="#f8b592"/>
	<path d="M42.07,26.51a0.086,0.086 0,1 0,0.087 -0.086A0.087,0.087 0,0 0,42.07 26.51Z" fill="#263238"/>
	<path d="M41.99,26.413c0.011,0.012 0.075,-0.043 0.167,-0.046s0.161,0.043 0.17,0.031 -0.006,-0.027 -0.036,-0.049a0.222,0.222 0,0 0,-0.269 0.012C41.994,26.386 41.984,26.408 41.99,26.413Z" fill="#263238"/>
	<path d="M43.061,26.528a0.085,0.085 0,1 0,0.087 -0.086A0.087,0.087 0,0 0,43.061 26.528Z" fill="#263238"/>
	<path d="M43.009,26.431c0.011,0.012 0.075,-0.043 0.167,-0.046s0.16,0.043 0.17,0.031 -0.006,-0.027 -0.036,-0.048a0.222,0.222 0,0 0,-0.269 0.012C43.013,26.404 43.004,26.426 43.009,26.431Z" fill="#263238"/>
	<path d="M42.663,27.223a0.563,0.563 0,0 0,-0.15 -0.023c-0.024,0 -0.046,-0.006 -0.05,-0.023a0.137,0.137 0,0 1,0.014 -0.075l0.067,-0.195a3.535,3.535 0,0 0,0.148 -0.508,3.524 3.524,0 0,0 -0.186,0.5l-0.064,0.2a0.156,0.156 0,0 0,-0.011 0.1,0.059 0.059,0 0,0 0.039,0.035 0.151,0.151 0,0 0,0.04 0A0.567,0.567 0,0 0,42.663 27.223Z" fill="#263238"/>
	<path d="M42.966,27.319a1.751,1.751 0,0 1,-0.448 0.149,0.252 0.252,0 0,0 0.3,0.094A0.2,0.2 0,0 0,42.966 27.319Z" fill="#fff"/>
	<path d="M42.618,28.397a1.639,1.639 0,0 0,0.891 -0.292,0.862 0.862,0 0,1 -0.879,0.46Z" fill="#a36957"/>
	<path d="M45.491,26.527c-0.006,-0.049 -0.013,-0.122 -0.02,-0.2h0a2.646,2.646 0,0 0,-0.037 -0.279,2.151 2.151,0 0,0 -1.8,-1.729 1.427,1.427 0,0 0,-1.387 0.536,1.351 1.351,0 0,0 -0.325,1.461l0.113,-0.1 0.982,-0.242a1.287,1.287 0,0 1,0.114 -0.761l0.006,-0.006a1.49,1.49 0,0 0,1.277 1.156l-0.1,2.732c1.083,-0.218 1.168,-1.974 1.166,-2.569Z" fill="#263238"/>
	<path d="M42.659,48.661" stroke-width="0.05" fill="#00000000" stroke="#a36957"/>
	<path d="M45.917,38.783l0,-0.035Z" fill="#b78876"/>
	<path d="M45.914,38.815c0,-0.013 0,-0.023 0,-0.032Z" fill="#b78876"/>
	<path d="M47.196,55.434s-2.535,-8.547 -2.584,-8.82c-0.044,-0.247 1.131,-6.243 1.3,-7.8l-3.565,0.034s0,0.01 0,0.026l-1.722,0.048 0.862,17.078 1.887,0.049 -0.028,-5.613c0.935,2.741 2.117,5.838 2.117,5.838Z" fill="#f8b592"/>
	<path d="M45.923,38.741Z" fill="#b78876"/>
	<path d="M45.921,38.747v0Z" fill="#b78876"/>
	<path d="M42.213,46.229c0.005,0 0,0.067 -0.011,0.186a3.672,3.672 0,0 0,0.009 0.507,4.648 4.648,0 0,0 0.126,0.741 7.391,7.391 0,0 0,0.3 0.871c0.235,0.613 0.444,1.17 0.594,1.574l0.174,0.479a1.188,1.188 0,0 1,0.057 0.178,1.239 1.239,0 0,1 -0.077,-0.171l-0.19,-0.473c-0.159,-0.4 -0.374,-0.954 -0.609,-1.568l-0.17,-0.448a4.144,4.144 0,0 1,-0.13 -0.43,4.365 4.365,0 0,1 -0.116,-0.75 3.072,3.072 0,0 1,0.008 -0.512c0.006,-0.06 0.014,-0.106 0.02,-0.138A0.165,0.165 0,0 1,42.213 46.229Z" fill="#a36957"/>
	<path d="M43.356,52.473c0,-0.052 0.033,-1.9 0.033,-1.9s-0.621,-1.717 -0.637,-1.664S43.356,52.473 43.356,52.473Z" fill="#a36957"/>
	<path d="M45.529,56.242h0l1.668,-0.808 0.193,0.358 -0.59,0.333a15.973,15.973 0,0 1,-2.093 0.993C44.348,57.184 45.529,56.242 45.529,56.242Z" fill="#ffcd23"/>
	<path d="M44.632,57.07c-0.008,-0.013 0.6,-0.314 1.36,-0.673s1.38,-0.639 1.388,-0.627 -0.6,0.314 -1.36,0.673S44.64,57.082 44.632,57.07Z" fill="#263238"/>
	<path d="M46.956,55.984c-0.008,0 -0.011,-0.032 -0.008,-0.082a0.486,0.486 0,0 1,0.053 -0.193,0.326 0.326,0 0,1 0.159,-0.146c0.055,-0.022 0.094,-0.017 0.094,-0.011s-0.032,0.016 -0.074,0.043a0.377,0.377 0,0 0,-0.126 0.137,0.892 0.892,0 0,0 -0.065,0.176C46.975,55.956 46.964,55.986 46.956,55.984Z" fill="#263238"/>
	<path d="M45.447,56.332a0.349,0.349 0,0 0,-0.018 -0.175,0.508 0.508,0 0,0 -0.087,-0.179 0.418,0.418 0,0 0,-0.09 -0.087,0.252 0.252,0 0,0 -0.064,-0.035 0.125,0.125 0,0 0,-0.091 0,0.1 0.1,0 0,0 -0.031,0.143 0.649,0.649 0,0 0,0.078 0.094,1.147 1.147,0 0,0 0.155,0.133 0.507,0.507 0,0 0,0.166 0.094c0.006,-0.007 -0.052,-0.049 -0.137,-0.123a1.554,1.554 0,0 1,-0.14 -0.136,0.692 0.692,0 0,1 -0.068,-0.086c-0.018,-0.027 -0.013,-0.061 0.006,-0.068s0.057,0 0.089,0.027a0.4,0.4 0,0 1,0.081 0.074,0.556 0.556,0 0,1 0.091,0.16A0.884,0.884 0,0 0,45.447 56.332Z" fill="#263238"/>
	<path d="M45.561,56.224a4.806,4.806 0,0 0,0.848 -0.354,5.011 5.011,0 0,0 0.787,-0.437 7.353,7.353 0,0 0,-0.828 0.381A8.605,8.605 0,0 0,45.561 56.224Z" fill="#263238"/>
	<path d="M41.573,56.018a0.377,0.377 0,0 0,0.091 -0.157,0.468 0.468,0 0,0 0.032,-0.192 0.345,0.345 0,0 0,-0.026 -0.116,0.213 0.213,0 0,0 -0.035,-0.059 0.12,0.12 0,0 0,-0.081 -0.041,0.108 0.108,0 0,0 -0.114,0.106 0.561,0.561 0,0 0,0.011 0.116,0.951 0.951,0 0,0 0.055,0.185 0.419,0.419 0,0 0,0.089 0.157,0.675 0.675,0 0,0 -0.045,-0.169 1.261,1.261 0,0 1,-0.04 -0.181,0.6 0.6,0 0,1 -0.007,-0.105c0,-0.032 0.025,-0.058 0.047,-0.055s0.048,0.03 0.062,0.064a0.33,0.33 0,0 1,0.026 0.1,0.5 0.5,0 0,1 -0.017,0.179A0.837,0.837 0,0 0,41.573 56.018Z" fill="#263238"/>
	<path d="M41.594,55.99c0.007,0 -0.016,-0.068 -0.083,-0.163a0.77,0.77 0,0 0,-0.143 -0.152,0.637 0.637,0 0,0 -0.109,-0.071 0.307,0.307 0,0 0,-0.07 -0.027,0.123 0.123,0 0,0 -0.049,0 0.071,0.071 0,0 0,-0.049 0.031,0.144 0.144,0 0,0 0.021,0.141 0.373,0.373 0,0 0,0.087 0.094,0.941 0.941,0 0,0 0.189,0.109 0.315,0.315 0,0 0,0.2 0.04,1.5 1.5,0 0,1 -0.18,-0.074 1.119,1.119 0,0 1,-0.17 -0.112,0.333 0.333,0 0,1 -0.072,-0.082 0.111,0.111 0,0 1,-0.02 -0.09c0,-0.01 0.047,0 0.082,0.019a0.636,0.636 0,0 1,0.1 0.062,0.918 0.918,0 0,1 0.145,0.136C41.546,55.935 41.584,55.994 41.594,55.99Z" fill="#263238"/>
	<path d="M46.817,32.917a7.538,7.538 0,0 0,-0.125 -1.827,1.8 1.8,0 0,0 -1.048,-1.368v-0.009l-0.043,-0.013a4.108,4.108 0,0 0,-1.306 -0.38l-1.763,-0.029a2.665,2.665 0,0 0,-2.114 0.734c-0.823,0.895 -1.383,1.423 -1.383,1.423l1.314,1.579 0.352,-0.348a2.584,2.584 0,0 0,0.2 1.149l0.568,1 -0.376,1.763a13.386,13.386 0,0 0,-0.7 5.557c0.373,3.011 0.433,3.891 0.433,3.891l4.258,0.582s1.7,-6.375 1.119,-8.908a5.71,5.71 0,0 0,-0.8 -2.036l0.111,-2.71Z" fill="#ffcd23"/>
	<path d="M41.036,32.095a2.21,2.21 0,1 1,-0.2 0.284A1.124,1.124 0,0 1,41.036 32.095Z" fill="#263238"/>
	<path d="M44.85,35.388a0.684,0.684 0,0 1,-0.136 0.027c-0.088,0.014 -0.216,0.031 -0.374,0.047a10.587,10.587 0,0 1,-2.483 -0.044c-0.158,-0.022 -0.285,-0.043 -0.372,-0.06a0.069,0.069 0,1 1,0 -0.021l0.374,0.043c0.315,0.034 0.752,0.07 1.236,0.079s0.922,-0.012 1.238,-0.035l0.375,-0.03A0.665,0.665 0,0 1,44.85 35.388Z" fill="#263238"/>
	<path d="M46.288,40.163a0.488,0.488 0,0 1,-0.016 0.084l-0.058,0.238 -0.043,0.172c-0.018,0.062 -0.041,0.129 -0.064,0.2 -0.049,0.143 -0.1,0.31 -0.173,0.484l-0.113,0.277c-0.04,0.1 -0.092,0.191 -0.14,0.293 -0.093,0.2 -0.217,0.41 -0.342,0.629a8.255,8.255 0,0 1,-2.21 2.4c-0.208,0.143 -0.4,0.283 -0.6,0.393 -0.1,0.056 -0.188,0.116 -0.28,0.164l-0.267,0.136c-0.168,0.091 -0.33,0.152 -0.469,0.212 -0.07,0.029 -0.134,0.058 -0.195,0.081l-0.168,0.057 -0.233,0.077a0.51,0.51 0,0 1,-0.082 0.023,0.485 0.485,0 0,1 0.079,-0.034l0.229,-0.087 0.166,-0.061c0.06,-0.024 0.123,-0.054 0.193,-0.085 0.137,-0.063 0.3,-0.126 0.463,-0.219l0.264,-0.138c0.091,-0.049 0.181,-0.109 0.277,-0.165 0.194,-0.111 0.387,-0.252 0.592,-0.4a8.423,8.423 0,0 0,2.2 -2.386c0.126,-0.217 0.251,-0.42 0.345,-0.623 0.049,-0.1 0.1,-0.195 0.142,-0.29l0.116,-0.274c0.079,-0.173 0.128,-0.338 0.18,-0.48 0.024,-0.071 0.049,-0.137 0.069,-0.2l0.047,-0.17 0.068,-0.235A0.517,0.517 0,0 1,46.288 40.163Z" fill="#263238"/>
	<path d="M46.751,32.001a0.4,0.4 0,0 1,-0.067 0.038c-0.044,0.024 -0.11,0.057 -0.2,0.1a2.691,2.691 0,0 1,-0.77 0.255,1.425 1.425,0 0,1 -0.562,-0.031 1.029,1.029 0,0 1,-0.29 -0.127,1.1 1.1,0 0,1 -0.249,-0.226 4.914,4.914 0,0 1,-0.377 -0.6,1.046 1.046,0 0,0 -0.525,-0.5 1.224,1.224 0,0 0,-0.73 0.046,2.822 2.822,0 0,1 -0.7,0.15 1.017,1.017 0,0 1,-1.054 -1.079,1.066 1.066,0 0,1 0.079,-0.342 0.761,0.761 0,0 1,0.159 -0.251,1.426 1.426,0 0,0 -0.139,0.259 1.077,1.077 0,0 0,-0.068 0.335,0.966 0.966,0 0,0 0.432,0.853 0.979,0.979 0,0 0,0.59 0.174,2.824 2.824,0 0,0 0.683,-0.152 2.293,2.293 0,0 1,0.37 -0.081,0.893 0.893,0 0,1 0.393,0.035 0.825,0.825 0,0 1,0.329 0.217,1.728 1.728,0 0,1 0.224,0.307 5.009,5.009 0,0 0,0.37 0.6,0.976 0.976,0 0,0 0.513,0.34 1.4,1.4 0,0 0,0.545 0.037,2.832 2.832,0 0,0 0.766,-0.236l0.2,-0.089A0.414,0.414 0,0 1,46.751 32.001Z" fill="#fff"/>
	<path d="M44.249,35.719a0.5,0.5 0,0 0,0.075 -0.177,0.58 0.58,0 0,0 -0.164,-0.478 0.755,0.755 0,0 0,-0.3 -0.189,1.912 1.912,0 0,0 -0.41,-0.09c-0.148,-0.02 -0.306,-0.031 -0.468,-0.067a1.137,1.137 0,0 1,-0.471 -0.2,0.727 0.727,0 0,1 -0.174,-0.2 1.333,1.333 0,0 1,-0.1 -0.232,2.488 2.488,0 0,0 -0.171,-0.432 0.775,0.775 0,0 0,-0.638 -0.378,0.8 0.8,0 0,0 -0.492,0.159 1.74,1.74 0,0 0,-0.145 0.131,0.165 0.165,0 0,1 0.028,-0.043 0.706,0.706 0,0 1,0.1 -0.105,0.8 0.8,0 0,1 0.506,-0.181 0.81,0.81 0,0 1,0.681 0.391,2.459 2.459,0 0,1 0.178,0.44 0.843,0.843 0,0 0,0.261 0.407,1.1 1.1,0 0,0 0.449,0.193c0.157,0.035 0.314,0.048 0.463,0.069a1.168,1.168 0,0 1,0.736 0.3,0.594 0.594,0 0,1 0.156,0.509 0.366,0.366 0,0 1,-0.06 0.135C44.262,35.708 44.25,35.721 44.249,35.719Z" fill="#fff"/>
	<path d="M45.9,43.178a1.486,1.486 0,0 0,-0.42 0.018,4.66 4.66,0 0,0 -0.48,0.126 2.309,2.309 0,0 1,-0.65 0.117,1.9 1.9,0 0,1 -0.786,-0.154 1.634,1.634 0,0 1,-0.712 -0.578,1.476 1.476,0 0,1 -0.228,-0.984 1.418,1.418 0,0 1,0.162 -0.517,1.259 1.259,0 0,1 0.371,-0.417 1.2,1.2 0,0 0,0.39 -0.364,0.4 0.4,0 0,0 0.035,-0.246 0.92,0.92 0,0 0,-0.084 -0.243,1.434 1.434,0 0,1 -0.176,-0.492 1.038,1.038 0,0 1,0.073 -0.5,1.212 1.212,0 0,1 0.644,-0.644 1.794,1.794 0,0 1,0.788 -0.141,4.055 4.055,0 0,0 0.655,-0.019 1.072,1.072 0,0 0,0.454 -0.177,0.673 0.673,0 0,0 0.207,-0.228c0.034,-0.063 0.042,-0.1 0.045,-0.1a0.371,0.371 0,0 1,-0.035 0.1,0.654 0.654,0 0,1 -0.2,0.24 1.077,1.077 0,0 1,-0.461 0.19,3.97 3.97,0 0,1 -0.66,0.027 1.764,1.764 0,0 0,-0.769 0.144,1.168 1.168,0 0,0 -0.616,0.622 0.991,0.991 0,0 0,-0.068 0.473,1.388 1.388,0 0,0 0.172,0.475 0.975,0.975 0,0 1,0.089 0.257,0.451 0.451,0 0,1 -0.04,0.279 1.23,1.23 0,0 1,-0.406 0.384,1.262 1.262,0 0,0 -0.513,0.9 1.428,1.428 0,0 0,0.217 0.95,1.592 1.592,0 0,0 0.688,0.565 1.867,1.867 0,0 0,0.767 0.157,2.312 2.312,0 0,0 0.643,-0.108 4.327,4.327 0,0 1,0.484 -0.117,1.233 1.233,0 0,1 0.315,-0.015A0.61,0.61 0,0 1,45.9 43.178Z" fill="#fff"/>
	<path d="M44.413,46.527s0,-0.073 0.008,-0.2a1.217,1.217 0,0 0,-0.1 -0.538,0.529 0.529,0 0,0 -0.256,-0.259 0.988,0.988 0,0 0,-0.424 -0.063,1.237 1.237,0 0,1 -0.493,-0.061 0.576,0.576 0,0 1,-0.213 -0.165,1.285 1.285,0 0,1 -0.145,-0.23 1.906,1.906 0,0 0,-0.269 -0.442,1.342 1.342,0 0,0 -0.374,-0.3 1.278,1.278 0,0 0,-0.789 -0.141,1.378 1.378,0 0,0 -0.517,0.183c-0.112,0.068 -0.166,0.118 -0.17,0.114s0.011,-0.014 0.037,-0.038a1.075,1.075 0,0 1,0.121 -0.093,1.32 1.32,0 0,1 0.523,-0.2 1.3,1.3 0,0 1,0.818 0.134,1.378 1.378,0 0,1 0.39,0.307 1.357,1.357 0,0 1,0.154 0.215c0.044,0.077 0.082,0.158 0.124,0.238a0.732,0.732 0,0 0,0.331 0.371,1.206 1.206,0 0,0 0.472,0.06 1.021,1.021 0,0 1,0.444 0.073,0.566 0.566,0 0,1 0.271,0.283 1.178,1.178 0,0 1,0.082 0.555c0,0.066 -0.011,0.117 -0.017,0.152A0.2,0.2 0,0 1,44.413 46.527Z" fill="#fff"/>
	<path d="M41.893,37.843a1.96,1.96 0,0 1,-0.086 0.18,1.387 1.387,0 0,0 -0.157,0.51 0.672,0.672 0,0 0,0.076 0.352,2.937 2.937,0 0,0 0.239,0.354 1.27,1.27 0,0 1,0.237 0.953,1.073 1.073,0 0,1 -0.578,0.786 0.964,0.964 0,0 1,-0.426 0.1,0.922 0.922,0 0,1 -0.78,-0.445 0.7,0.7 0,0 1,-0.061 -0.136,0.18 0.18,0 0,1 -0.012,-0.051c0.005,0 0.023,0.068 0.091,0.176a0.906,0.906 0,0 0,0.4 0.338,0.866 0.866,0 0,0 0.357,0.073 0.925,0.925 0,0 0,0.4 -0.1,1.03 1.03,0 0,0 0.547,-0.75 1.231,1.231 0,0 0,-0.225 -0.915,2.848 2.848,0 0,1 -0.239,-0.363 0.705,0.705 0,0 1,-0.074 -0.375,1.324 1.324,0 0,1 0.176,-0.518c0.031,-0.057 0.057,-0.1 0.075,-0.128A0.183,0.183 0,0 1,41.893 37.843Z" fill="#fff"/>
	<path d="M45.059,34.318a0.563,0.563 0,0 1,-0.013 -0.125l-0.017,-0.341c-0.015,-0.3 -0.034,-0.693 -0.055,-1.127s-0.035,-0.839 -0.039,-1.128c0,-0.144 0,-0.261 0,-0.342a0.063,0.063 0,1 1,0.021 0l0.017,0.341 0.055,1.127c0.021,0.44 0.035,0.839 0.039,1.128 0,0.145 0,0.262 0,0.342A0.547,0.547 0,0 1,45.059 34.318Z" fill="#263238"/>
	<path d="M45.022,32.988a8.495,8.495 0,0 1,-0.026 2.261,8.442 8.442,0 0,1 -3.15,1.193c-0.074,-0.026 -0.16,-0.06 -0.26,-0.1a0.829,0.829 0,0 1,-0.234 -0.156,1.3 1.3,0 0,1 -0.231,-0.265 0.106,0.106 0,0 0,-0.2 0.015,0.92 0.92,0 0,0 0.393,0.581c0.274,0.215 -0.265,0.226 -0.461,0.234a3.124,3.124 0,0 0,-0.846 0.125c-0.065,0.093 0.022,0.183 0.217,0.171s0.785,-0.007 0.786,0.1 -1,0.13 -1,0.13 -0.215,-0.03 -0.218,0.093c-0.006,0.221 1.053,0.114 1.154,0.1 0.07,-0.009 0.075,0.106 0,0.112s-1,0 -1.005,0.227c-0.006,0.172 0.872,-0.08 1.064,0.029s-0.686,0.122 -0.685,0.287c0,0.061 0.009,0.107 0.511,0.026a9.982,9.982 0,0 0,1.063 -0.283v0.005s5.221,-0.448 5.09,-2.8c-0.088,-1.593 -0.06,-1.3 -0.157,-2.136" fill="#f8b592"/>
</svg>
